<svg width="22" height="22" viewBox="0 0 22 22" fill="none" xmlns="http://www.w3.org/2000/svg">
<g clip-path="url(#clip0_2928_4218)">
<path d="M5.63902 3.98956V2.86503C5.63902 2.38594 6.00887 2 6.468 2C6.92713 2 7.29699 2.38594 7.29699 2.86503V3.98956H5.63902Z" fill="#4F68E9"/>
<path d="M13.9289 13.4068C13.9289 13.1504 14.1367 12.9426 14.3931 12.9426H16.1174C16.3738 12.9426 16.5816 13.1504 16.5816 13.4068V15.1311C16.5816 15.3875 16.3738 15.5953 16.1174 15.5953H14.3931C14.1367 15.5953 13.9289 15.3875 13.9289 15.1311V13.4068Z" fill="#4F68E9"/>
<path d="M5.30742 10.0909C5.30742 9.8345 5.51527 9.62666 5.77166 9.62666H7.49594C7.75233 9.62666 7.96017 9.8345 7.96017 10.0909V11.8152C7.96017 12.0716 7.75233 12.2794 7.49594 12.2794H5.77166C5.51527 12.2794 5.30742 12.0716 5.30742 11.8152V10.0909ZM5.97061 10.2898V11.6162H7.29699V10.2898H5.97061Z" fill="#4F68E9"/>
<path d="M9.61814 10.0909C9.61814 9.8345 9.82599 9.62666 10.0824 9.62666H11.8067C12.0631 9.62666 12.2709 9.8345 12.2709 10.0909V11.8152C12.2709 12.0716 12.0631 12.2794 11.8067 12.2794H10.0824C9.82599 12.2794 9.61814 12.0716 9.61814 11.8152V10.0909ZM10.2813 10.2898V11.6162H11.6077V10.2898H10.2813Z" fill="#4F68E9"/>
<path d="M13.9289 10.0909C13.9289 9.8345 14.1367 9.62666 14.3931 9.62666H16.1174C16.3738 9.62666 16.5816 9.8345 16.5816 10.0909V11.8152C16.5816 12.0716 16.3738 12.2794 16.1174 12.2794H14.3931C14.1367 12.2794 13.9289 12.0716 13.9289 11.8152V10.0909ZM14.5921 10.2898V11.6162H15.9184V10.2898H14.5921Z" fill="#4F68E9"/>
<path d="M5.30742 13.4068C5.30742 13.1504 5.51527 12.9426 5.77166 12.9426H7.49594C7.75233 12.9426 7.96017 13.1504 7.96017 13.4068V15.1311C7.96017 15.3875 7.75233 15.5953 7.49594 15.5953H5.77166C5.51527 15.5953 5.30742 15.3875 5.30742 15.1311V13.4068ZM5.97061 13.6058V14.9322H7.29699V13.6058H5.97061Z" fill="#4F68E9"/>
<path d="M9.61814 13.4068C9.61814 13.1504 9.82599 12.9426 10.0824 12.9426H11.8067C12.063 12.9426 12.2709 13.1504 12.2709 13.4068V15.1311C12.2709 15.3875 12.063 15.5953 11.8067 15.5953H10.0824C9.82599 15.5953 9.61814 15.3875 9.61814 15.1311V13.4068ZM10.2813 13.6058V14.9322H11.6077V13.6058H10.2813Z" fill="#4F68E9"/>
<path d="M5.30742 16.7228C5.30742 16.4664 5.51527 16.2585 5.77166 16.2585H7.49594C7.75233 16.2585 7.96017 16.4664 7.96017 16.7228V18.4471C7.96017 18.7034 7.75233 18.9113 7.49594 18.9113H5.77166C5.51527 18.9113 5.30742 18.7034 5.30742 18.4471V16.7228ZM5.97061 16.9217V18.2481H7.29699V16.9217H5.97061Z" fill="#4F68E9"/>
<path d="M9.61814 16.7228C9.61814 16.4664 9.82599 16.2585 10.0824 16.2585H11.8067C12.0631 16.2585 12.2709 16.4664 12.2709 16.7228V18.4471C12.2709 18.7034 12.0631 18.9113 11.8067 18.9113H10.0824C9.82599 18.9113 9.61814 18.7034 9.61814 18.4471V16.7228ZM10.2813 16.9217V18.2481H11.6077V16.9217H10.2813Z" fill="#4F68E9"/>
<path d="M5.63902 5.1141C5.63902 5.59319 6.00887 5.97913 6.468 5.97913C6.92713 5.97913 7.29699 5.59319 7.29699 5.1141V3.98956L14.5921 3.98959V5.1141C14.5921 5.59319 14.9619 5.97913 15.421 5.97913C15.8802 5.97913 16.25 5.59319 16.25 5.1141V3.98959H18.3996C19.7719 3.98959 20.8923 5.11122 20.8923 6.49989V18.0757C20.8923 19.8134 19.483 21.2324 17.7365 21.2324H4.15259C2.41379 21.2324 0.996704 19.8145 0.996704 18.0757V6.49989C0.996704 5.11122 2.11709 3.98292 3.4894 3.98959L5.63902 3.98956V5.1141ZM2.32308 7.96869V18.0757C2.32308 19.0824 3.14677 19.9061 4.15259 19.9061H15.2619V18.9113H14.3931C14.1367 18.9113 13.9289 18.7034 13.9289 18.4471V16.7228C13.9289 16.4664 14.1367 16.2585 14.3931 16.2585H16.1174C16.1633 16.2585 16.2076 16.2652 16.2494 16.2776C16.7441 15.8527 17.3865 15.5953 18.0871 15.5953H19.566V7.96869H2.32308ZM15.2695 18.2127C15.304 17.7413 15.4552 17.3013 15.6941 16.9217H14.5921V18.2481H15.2671C15.2678 18.2363 15.2686 18.2245 15.2695 18.2127ZM15.9251 19.7687L19.4352 16.2585H18.0871C16.9346 16.2585 15.986 17.171 15.9279 18.3097C15.926 18.3464 15.9251 18.3833 15.9251 18.4205V19.7687Z" fill="#4F68E9"/>
<path d="M14.5921 2.86503V3.98959H16.25V2.86503C16.25 2.38594 15.8802 2 15.421 2C14.9619 2 14.5921 2.38594 14.5921 2.86503Z" fill="#4F68E9"/>
</g>
<defs>
<clipPath id="clip0_2928_4218">
<rect width="21.222" height="21.222" fill="white" transform="translate(0.333496 0.673828)"/>
</clipPath>
</defs>
</svg>
