<svg width="21" height="24" viewBox="0 0 21 24" fill="none" xmlns="http://www.w3.org/2000/svg">
<path d="M13.9251 4.91336C13.9251 3.70243 14.8064 2.72656 15.8857 2.72656C16.9649 2.72656 17.8398 3.70243 17.8462 4.91336V9.34758C18.8611 9.64911 19.6088 10.6813 19.6088 11.9083C19.6088 13.1353 18.8611 14.1675 17.8462 14.469V18.9103C17.8462 20.1212 16.9649 21.0971 15.8857 21.0971C15.3755 21.0971 14.9119 20.88 14.5637 20.525C14.1709 20.1245 13.9251 19.5484 13.9251 18.9103V18.7449L10.1378 16.6666C9.74679 16.4524 9.33136 16.2972 8.90465 16.2048C8.66477 16.1562 8.42169 16.1262 8.17746 16.1154C8.10941 16.1124 8.04128 16.1109 7.97309 16.1109L7.97067 16.1038H6.90021V20.3907C6.90021 20.8679 6.55535 21.2526 6.12747 21.2526H4.48363C4.05575 21.2526 3.71089 20.8679 3.71089 20.3907V16.1038H2.89386C2.28346 16.1038 1.7912 15.5696 1.7912 14.9142V8.90943C1.7912 8.24698 2.28346 7.71275 2.89386 7.71275H7.97308C7.99267 7.71275 8.01228 7.7126 8.03187 7.71235C8.76084 7.7025 9.48372 7.50951 10.1388 7.15748L13.9251 5.07961V4.91336ZM4.98814 16.1038V19.828H5.62296V16.1038H4.98814ZM12.9991 7.21624L10.8378 8.4023L10.8332 8.40476C10.2001 8.74524 9.51756 8.97361 8.81609 9.07594V14.5744L8.87839 14.7573C9.55967 14.8646 10.2235 15.092 10.8415 15.4305L10.8424 15.4309L12.9991 16.6145V7.21624Z" fill="#4F68E9"/>
</svg>
