<svg width="20" height="20" viewBox="0 0 20 20" fill="none" xmlns="http://www.w3.org/2000/svg">
<g clip-path="url(#clip0_2194_3176)">
<g clip-path="url(#clip1_2194_3176)">
<g clip-path="url(#clip2_2194_3176)">
<path d="M17.1617 17.4403C16.96 17.4403 16.7665 17.3639 16.6239 17.2279C16.4812 17.0918 16.4011 16.9073 16.4011 16.7149V15.1024C16.377 14.4189 16.07 13.7723 15.5474 13.3041C15.0247 12.8359 14.3288 12.5841 13.6121 12.6039H6.51272C5.79594 12.5841 5.1001 12.8359 4.57742 13.3041C4.05475 13.7723 3.74778 14.4189 3.72368 15.1024V16.7149C3.72368 16.9073 3.64354 17.0918 3.5009 17.2279C3.35825 17.3639 3.16477 17.4403 2.96304 17.4403C2.7613 17.4403 2.56783 17.3639 2.42518 17.2279C2.28253 17.0918 2.20239 16.9073 2.20239 16.7149V15.1024C2.22663 14.0341 2.69392 13.0185 3.50187 12.2782C4.30982 11.538 5.39252 11.1333 6.51272 11.153H13.6121C14.7323 11.1333 15.815 11.538 16.6229 12.2782C17.4309 13.0185 17.8982 14.0341 17.9224 15.1024V16.7149C17.9224 16.9073 17.8423 17.0918 17.6996 17.2279C17.557 17.3639 17.3635 17.4403 17.1617 17.4403Z" fill="#4F68E9"/>
<path d="M10.0623 1.7207C10.8396 1.7207 11.5994 1.95119 12.2457 2.38303C12.892 2.81486 13.3957 3.42864 13.6932 4.14676C13.9906 4.86487 14.0684 5.65506 13.9168 6.41741C13.7652 7.17975 13.3909 7.88001 12.8413 8.42963C12.2916 8.97925 11.5914 9.35355 10.829 9.50519C10.0667 9.65683 9.27649 9.579 8.55838 9.28155C7.84026 8.9841 7.22648 8.48038 6.79465 7.83409C6.36281 7.18781 6.13232 6.42798 6.13232 5.6507C6.13343 4.60874 6.54784 3.60978 7.28462 2.873C8.0214 2.13622 9.02036 1.72181 10.0623 1.7207ZM10.0623 8.0087C10.5287 8.0087 10.9846 7.87041 11.3724 7.61131C11.7601 7.35221 12.0624 6.98394 12.2408 6.55307C12.4193 6.1222 12.466 5.64809 12.375 5.19068C12.284 4.73327 12.0595 4.31312 11.7297 3.98335C11.3999 3.65357 10.9798 3.429 10.5223 3.33801C10.0649 3.24703 9.59082 3.29372 9.15996 3.4722C8.72909 3.65067 8.36082 3.9529 8.10172 4.34067C7.84262 4.72844 7.70432 5.18433 7.70432 5.6507C7.70516 6.27583 7.95385 6.87511 8.39588 7.31714C8.83792 7.75917 9.4372 8.00787 10.0623 8.0087Z" fill="#4F68E9"/>
</g>
</g>
</g>
<defs>
<clipPath id="clip0_2194_3176">
<rect width="19.2303" height="19.2303" fill="white" transform="translate(0.26416 0.163086)"/>
</clipPath>
<clipPath id="clip1_2194_3176">
<rect width="18.864" height="18.864" fill="white" transform="translate(0.26416 0.163086)"/>
</clipPath>
<clipPath id="clip2_2194_3176">
<rect width="18.864" height="18.864" fill="white" transform="translate(0.26416 0.163086)"/>
</clipPath>
</defs>
</svg>
