<svg width="24" height="24" viewBox="0 0 24 24" fill="none" xmlns="http://www.w3.org/2000/svg">
<g clip-path="url(#clip0_2167_3302)">
<path d="M12 5.23197e-07C12.2256 -0.000227136 12.4446 0.0738473 12.6213 0.210163L22.6213 7.92908C22.7394 8.02023 22.8348 8.13619 22.9004 8.26829C22.966 8.40038 23 8.5452 22.9999 8.69189V20.8216C23.0049 21.6587 22.6684 22.4634 22.0642 23.0593C21.46 23.6552 20.6376 23.9935 19.7773 24H4.2227C3.36244 23.9935 2.53997 23.6552 1.93579 23.0593C1.33161 22.4634 0.995084 21.6587 1.00005 20.8216V8.69189C0.999986 8.5452 1.03401 8.40038 1.09958 8.26829C1.16516 8.13619 1.26058 8.02023 1.37872 7.92908L11.3787 0.210163C11.5554 0.0738473 11.7744 -0.000227136 12 5.23197e-07ZM21 10.1442C21 9.52448 20.7126 8.93973 20.222 8.56104L13.2221 3.1578C12.5021 2.60208 11.4979 2.60207 10.7779 3.1578L3.77797 8.56103C3.28737 8.93973 3.00004 9.52448 3.00004 10.1442V20.8216C2.99469 21.1427 3.12039 21.4527 3.34958 21.6837C3.57877 21.9147 3.89276 22.0479 4.2227 22.0541H19.7773C20.1072 22.0479 20.4212 21.9147 20.6504 21.6837C20.8796 21.4527 21.0053 21.1427 21 20.8216V10.1442Z" fill="#4F68E9"/>
<path d="M15.8462 24C15.5401 24 15.2467 23.8977 15.0303 23.7157C14.8139 23.5337 14.6923 23.2868 14.6923 23.0294V14.9412H9.30769V23.0294C9.30769 23.2868 9.18613 23.5337 8.96974 23.7157C8.75335 23.8977 8.45987 24 8.15385 24C7.84783 24 7.55434 23.8977 7.33795 23.7157C7.12157 23.5337 7 23.2868 7 23.0294V13.9706C7 13.7132 7.12157 13.4663 7.33795 13.2843C7.55434 13.1023 7.84783 13 8.15385 13H15.8462C16.1522 13 16.4457 13.1023 16.662 13.2843C16.8784 13.4663 17 13.7132 17 13.9706V23.0294C17 23.2868 16.8784 23.5337 16.662 23.7157C16.4457 23.8977 16.1522 24 15.8462 24Z" fill="#4F68E9"/>
</g>
<defs>
<clipPath id="clip0_2167_3302">
<rect width="23" height="24" fill="white"/>
</clipPath>
</defs>
</svg>
