<svg width="20" height="21" viewBox="0 0 20 21" fill="none" xmlns="http://www.w3.org/2000/svg">
<g clip-path="url(#clip0_2794_4221)">
<path d="M16.6965 17.4102V16.7867C16.6965 16.2764 16.476 15.8344 16.1347 15.5424C15.4137 14.9337 15.009 14.0544 14.8455 13.1806L14.8454 13.1804L13.8313 7.71509C13.4835 5.84904 12.0887 4.46735 10.4027 4.1886L10.0885 4.13665H9.47268L9.15849 4.1886C7.47261 4.46732 6.07794 5.84874 5.72991 7.71448L16.6965 17.4102ZM16.6965 17.4102H11.351H11.2763L11.2444 17.4777L11.0829 17.8192C10.858 18.2947 10.3686 18.6383 9.78057 18.6383C9.1925 18.6383 8.70309 18.2947 8.47824 17.8192L8.31677 17.4777L8.28485 17.4102H8.21019H2.86466V16.7867C2.86466 16.2764 3.08512 15.8344 3.42651 15.5424C4.14749 14.9336 4.55212 14.0544 4.71566 13.1806L4.71569 13.1804L5.72989 7.71458L16.6965 17.4102ZM4.34742 7.4365L4.34741 7.4366L3.33349 12.9009C3.33348 12.9009 3.33348 12.9009 3.33347 12.901C3.21575 13.5294 2.94098 14.0669 2.53774 14.4068L2.53745 14.4071L2.53478 14.4093L2.53453 14.4095C1.88033 14.9678 1.45656 15.819 1.45656 16.7867V17.5446C1.45656 18.2636 2.00676 18.8742 2.71746 18.8742H7.45058C7.96631 19.6199 8.81912 20.1023 9.78057 20.1023C10.742 20.1023 11.5948 19.6199 12.1106 18.8742H16.8437C17.5651 18.8742 18.1046 18.2584 18.1046 17.5446V16.7867C18.1046 15.819 17.6808 14.9678 17.0266 14.4095L17.0264 14.4093L17.0237 14.4071L17.0234 14.4068C16.6201 14.0668 16.3454 13.5298 16.2277 12.9012L15.2138 7.43711L15.2138 7.43702C14.7963 5.1974 13.223 3.45261 11.2159 2.87632C11.1819 2.08455 10.5569 1.4446 9.78057 1.4446C9.00423 1.4446 8.37921 2.08455 8.34528 2.87633C6.33813 3.45259 4.76489 5.19688 4.34742 7.4365Z" fill="#143967" stroke="#143967" stroke-width="0.2358"/>
</g>
<defs>
<clipPath id="clip0_2794_4221">
<rect width="18.7568" height="19.65" fill="white" transform="translate(0.4021 0.948242)"/>
</clipPath>
</defs>
</svg>
