<svg width="21" height="22" viewBox="0 0 21 22" fill="none" xmlns="http://www.w3.org/2000/svg">
<path d="M1.34399 3.87793H20.208M8.26079 9.59008V15.1963M13.2912 9.53713V15.1434" stroke="#143967" stroke-width="1.572" stroke-linecap="round"/>
<path d="M4.22619 19.5636L3.43154 5.01549H18.1201L17.3255 19.5636C17.28 20.3973 16.5907 21.0499 15.7558 21.0499H5.79585C4.96097 21.0499 4.27173 20.3973 4.22619 19.5636Z" stroke="#143967" stroke-width="1.572"/>
<path d="M7.16161 2.81503C7.16161 1.94684 7.86542 1.24303 8.73361 1.24303H12.8208C13.689 1.24303 14.3928 1.94684 14.3928 2.81503V3.12943C14.3928 3.99762 13.689 4.70143 12.8208 4.70143H8.73361C7.86542 4.70143 7.16161 3.99762 7.16161 3.12943V2.81503Z" stroke="#143967" stroke-width="1.572"/>
</svg>
