<svg width="27" height="27" viewBox="0 0 27 27" fill="none" xmlns="http://www.w3.org/2000/svg">
<path d="M6.75 4.21875V2.78804C6.75 2.17851 7.22055 1.6875 7.80469 1.6875C8.38882 1.6875 8.85938 2.17851 8.85938 2.78804V4.21875H6.75Z" fill="#BFBFBF"/>
<path d="M17.2969 16.2C17.2969 15.8738 17.5613 15.6094 17.8875 15.6094H20.0812C20.4074 15.6094 20.6719 15.8738 20.6719 16.2V18.3937C20.6719 18.7199 20.4074 18.9844 20.0812 18.9844H17.8875C17.5613 18.9844 17.2969 18.7199 17.2969 18.3937V16.2Z" fill="#BFBFBF"/>
<path d="M6.32812 11.9812C6.32812 11.6551 6.59256 11.3906 6.91875 11.3906H9.1125C9.43869 11.3906 9.70312 11.6551 9.70312 11.9812V14.175C9.70312 14.5012 9.43869 14.7656 9.1125 14.7656H6.91875C6.59256 14.7656 6.32812 14.5012 6.32812 14.175V11.9812ZM7.17188 12.2344V13.9219H8.85938V12.2344H7.17188Z" fill="#BFBFBF"/>
<path d="M11.8125 11.9812C11.8125 11.6551 12.0769 11.3906 12.4031 11.3906H14.5969C14.9231 11.3906 15.1875 11.6551 15.1875 11.9812V14.175C15.1875 14.5012 14.9231 14.7656 14.5969 14.7656H12.4031C12.0769 14.7656 11.8125 14.5012 11.8125 14.175V11.9812ZM12.6562 12.2344V13.9219H14.3438V12.2344H12.6562Z" fill="#BFBFBF"/>
<path d="M17.2969 11.9812C17.2969 11.6551 17.5613 11.3906 17.8875 11.3906H20.0812C20.4074 11.3906 20.6719 11.6551 20.6719 11.9812V14.175C20.6719 14.5012 20.4074 14.7656 20.0812 14.7656H17.8875C17.5613 14.7656 17.2969 14.5012 17.2969 14.175V11.9812ZM18.1406 12.2344V13.9219H19.8281V12.2344H18.1406Z" fill="#BFBFBF"/>
<path d="M6.32812 16.2C6.32812 15.8738 6.59256 15.6094 6.91875 15.6094H9.1125C9.43869 15.6094 9.70312 15.8738 9.70312 16.2V18.3937C9.70312 18.7199 9.43869 18.9844 9.1125 18.9844H6.91875C6.59256 18.9844 6.32812 18.7199 6.32812 18.3937V16.2ZM7.17188 16.4531V18.1406H8.85938V16.4531H7.17188Z" fill="#BFBFBF"/>
<path d="M11.8125 16.2C11.8125 15.8738 12.0769 15.6094 12.4031 15.6094H14.5969C14.9231 15.6094 15.1875 15.8738 15.1875 16.2V18.3937C15.1875 18.7199 14.9231 18.9844 14.5969 18.9844H12.4031C12.0769 18.9844 11.8125 18.7199 11.8125 18.3937V16.2ZM12.6562 16.4531V18.1406H14.3438V16.4531H12.6562Z" fill="#BFBFBF"/>
<path d="M6.32812 20.4188C6.32812 20.0926 6.59256 19.8281 6.91875 19.8281H9.1125C9.43869 19.8281 9.70312 20.0926 9.70312 20.4188V22.6125C9.70312 22.9387 9.43869 23.2031 9.1125 23.2031H6.91875C6.59256 23.2031 6.32812 22.9387 6.32812 22.6125V20.4188ZM7.17188 20.6719V22.3594H8.85938V20.6719H7.17188Z" fill="#BFBFBF"/>
<path d="M11.8125 20.4188C11.8125 20.0926 12.0769 19.8281 12.4031 19.8281H14.5969C14.9231 19.8281 15.1875 20.0926 15.1875 20.4188V22.6125C15.1875 22.9387 14.9231 23.2031 14.5969 23.2031H12.4031C12.0769 23.2031 11.8125 22.9387 11.8125 22.6125V20.4188ZM12.6562 20.6719V22.3594H14.3438V20.6719H12.6562Z" fill="#BFBFBF"/>
<path d="M6.75 5.64946C6.75 6.25899 7.22055 6.75 7.80469 6.75C8.38882 6.75 8.85938 6.25899 8.85938 5.64946V4.21875L18.1406 4.21879V5.64946C18.1406 6.25899 18.6112 6.75 19.1953 6.75C19.7794 6.75 20.25 6.25899 20.25 5.64946V4.21879H22.9849C24.7308 4.21879 26.1562 5.64579 26.1562 7.41256V22.14C26.1562 24.3508 24.3632 26.1562 22.1411 26.1562H4.85887C2.64665 26.1562 0.84375 24.3523 0.84375 22.14V7.41256C0.84375 5.64579 2.26918 4.21029 4.01512 4.21879L6.75 4.21875V5.64946ZM2.53125 9.28125V22.14C2.53125 23.4209 3.5792 24.4688 4.85887 24.4688H18.9928V23.2031H17.8875C17.5613 23.2031 17.2969 22.9387 17.2969 22.6125V20.4188C17.2969 20.0926 17.5613 19.8281 17.8875 19.8281H20.0812C20.1396 19.8281 20.196 19.8366 20.2492 19.8524C20.8785 19.3117 21.6959 18.9844 22.5872 18.9844H24.4688V9.28125H2.53125ZM19.0025 22.3143C19.0465 21.7145 19.2388 21.1548 19.5427 20.6719H18.1406V22.3594H18.9995C19.0004 22.3443 19.0014 22.3293 19.0025 22.3143ZM19.8366 24.294L24.3024 19.8281H22.5872C21.1209 19.8281 19.9142 20.9891 19.8402 22.4377C19.8378 22.4844 19.8366 22.5315 19.8366 22.5788V24.294Z" fill="#BFBFBF"/>
<path d="M18.1406 2.78804V4.21879H20.25V2.78804C20.25 2.17851 19.7794 1.6875 19.1953 1.6875C18.6112 1.6875 18.1406 2.17851 18.1406 2.78804Z" fill="#BFBFBF"/>
</svg>
