<svg width="63" height="63" viewBox="0 0 63 63" fill="none" xmlns="http://www.w3.org/2000/svg">
<rect x="4.09131" y="7.06055" width="54.8174" height="51.1725" rx="5.25" fill="url(#paint0_linear_3314_6308)"/>
<rect x="4.09131" y="7.06055" width="54.8174" height="51.1725" rx="5.25" fill="url(#paint1_linear_3314_6308)"/>
<rect x="4.09131" y="7.06055" width="54.8174" height="51.1725" rx="5.25" fill="url(#paint2_linear_3314_6308)"/>
<rect x="4.09131" y="7.06055" width="54.8174" height="51.1725" rx="5.25" fill="url(#paint3_linear_3314_6308)"/>
<rect x="4.09131" y="7.06055" width="54.8174" height="51.1725" rx="5.25" fill="url(#paint4_linear_3314_6308)"/>
<rect x="4.09131" y="7.06055" width="54.8174" height="51.1725" rx="5.25" fill="url(#paint5_linear_3314_6308)"/>
<rect x="4.09131" y="7.06055" width="54.8174" height="51.1725" rx="5.25" fill="url(#paint6_radial_3314_6308)"/>
<rect x="4.09131" y="7.06055" width="54.8174" height="51.1725" rx="5.25" fill="url(#paint7_radial_3314_6308)"/>
<rect x="4.09131" y="7.06055" width="54.8174" height="51.1725" rx="5.25" fill="url(#paint8_linear_3314_6308)"/>
<rect x="4.09131" y="7.06055" width="54.8174" height="51.1725" rx="5.25" fill="url(#paint9_linear_3314_6308)"/>
<path d="M58.9087 20.4727H4.09131V17.1012C4.09131 11.5559 8.58661 7.06055 14.1319 7.06055H48.8681C54.4134 7.06055 58.9087 11.5559 58.9087 17.1012V20.4727Z" fill="url(#paint10_linear_3314_6308)"/>
<path d="M58.9087 20.4727H4.09131V17.1012C4.09131 11.5559 8.58661 7.06055 14.1319 7.06055H48.8681C54.4134 7.06055 58.9087 11.5559 58.9087 17.1012V20.4727Z" fill="url(#paint11_linear_3314_6308)"/>
<path d="M58.9087 20.4727H4.09131V17.1012C4.09131 11.5559 8.58661 7.06055 14.1319 7.06055H48.8681C54.4134 7.06055 58.9087 11.5559 58.9087 17.1012V20.4727Z" fill="url(#paint12_radial_3314_6308)"/>
<path d="M58.9087 20.4727H4.09131V17.1012C4.09131 11.5559 8.58661 7.06055 14.1319 7.06055H48.8681C54.4134 7.06055 58.9087 11.5559 58.9087 17.1012V20.4727Z" fill="url(#paint13_radial_3314_6308)"/>
<path d="M58.9087 20.4727H4.09131V17.1012C4.09131 11.5559 8.58661 7.06055 14.1319 7.06055H48.8681C54.4134 7.06055 58.9087 11.5559 58.9087 17.1012V20.4727Z" fill="url(#paint14_linear_3314_6308)"/>
<path d="M58.9087 20.4727H4.09131V17.1012C4.09131 11.5559 8.58661 7.06055 14.1319 7.06055H48.8681C54.4134 7.06055 58.9087 11.5559 58.9087 17.1012V20.4727Z" fill="url(#paint15_linear_3314_6308)"/>
<path d="M58.9087 20.4727H4.09131V17.1012C4.09131 11.5559 8.58661 7.06055 14.1319 7.06055H48.8681C54.4134 7.06055 58.9087 11.5559 58.9087 17.1012V20.4727Z" fill="url(#paint16_radial_3314_6308)"/>
<path d="M58.9087 20.4727H4.09131V17.1012C4.09131 11.5559 8.58661 7.06055 14.1319 7.06055H48.8681C54.4134 7.06055 58.9087 11.5559 58.9087 17.1012V20.4727Z" fill="url(#paint17_radial_3314_6308)"/>
<path d="M58.9087 20.4727H4.09131V17.1012C4.09131 11.5559 8.58661 7.06055 14.1319 7.06055H48.8681C54.4134 7.06055 58.9087 11.5559 58.9087 17.1012V20.4727Z" fill="url(#paint18_radial_3314_6308)"/>
<path d="M58.9087 20.4727H4.09131V17.1012C4.09131 11.5559 8.58661 7.06055 14.1319 7.06055H48.8681C54.4134 7.06055 58.9087 11.5559 58.9087 17.1012V20.4727Z" fill="url(#paint19_radial_3314_6308)"/>
<path d="M58.9087 20.4727H4.09131V17.1012C4.09131 11.5559 8.58661 7.06055 14.1319 7.06055H48.8681C54.4134 7.06055 58.9087 11.5559 58.9087 17.1012V20.4727Z" fill="url(#paint20_radial_3314_6308)"/>
<path d="M58.9088 39.7891V48.1919C58.9088 53.7372 54.4135 58.2326 48.8682 58.2326H40.3525L58.9088 39.7891Z" fill="#D3CBDD"/>
<path d="M58.9088 39.7891V48.1919C58.9088 53.7372 54.4135 58.2326 48.8682 58.2326H40.3525L58.9088 39.7891Z" fill="url(#paint21_linear_3314_6308)"/>
<path d="M58.9088 39.7891V48.1919C58.9088 53.7372 54.4135 58.2326 48.8682 58.2326H40.3525L58.9088 39.7891Z" fill="url(#paint22_radial_3314_6308)"/>
<path d="M58.9088 39.7891V48.1919C58.9088 53.7372 54.4135 58.2326 48.8682 58.2326H40.3525L58.9088 39.7891Z" fill="url(#paint23_linear_3314_6308)"/>
<path d="M58.9088 39.7891V48.1919C58.9088 53.7372 54.4135 58.2326 48.8682 58.2326H40.3525L58.9088 39.7891Z" fill="url(#paint24_linear_3314_6308)"/>
<path d="M58.9088 39.7891V48.1919C58.9088 53.7372 54.4135 58.2326 48.8682 58.2326H40.3525L58.9088 39.7891Z" fill="url(#paint25_linear_3314_6308)"/>
<path d="M58.9088 39.7891V48.1919C58.9088 53.7372 54.4135 58.2326 48.8682 58.2326H40.3525L58.9088 39.7891Z" fill="url(#paint26_radial_3314_6308)"/>
<rect x="40.4363" y="26.0098" width="5.52173" height="5.52173" rx="0.1" fill="#9896A1"/>
<rect x="40.4363" y="26.0098" width="5.52173" height="5.52173" rx="0.1" fill="url(#paint27_linear_3314_6308)"/>
<rect x="40.4363" y="26.0098" width="5.52173" height="5.52173" rx="0.1" fill="url(#paint28_linear_3314_6308)"/>
<rect x="40.4363" y="26.0098" width="5.52173" height="5.52173" rx="0.1" fill="url(#paint29_linear_3314_6308)"/>
<rect x="40.4363" y="26.0098" width="5.52173" height="5.52173" rx="0.1" fill="url(#paint30_linear_3314_6308)"/>
<rect x="40.4363" y="35.8535" width="5.52173" height="5.52173" rx="0.1" fill="url(#paint31_linear_3314_6308)"/>
<rect x="40.4363" y="35.8535" width="5.52173" height="5.52173" rx="0.1" fill="url(#paint32_linear_3314_6308)"/>
<rect x="40.4363" y="35.8535" width="5.52173" height="5.52173" rx="0.1" fill="url(#paint33_linear_3314_6308)"/>
<rect x="40.4363" y="35.8535" width="5.52173" height="5.52173" rx="0.1" fill="url(#paint34_linear_3314_6308)"/>
<rect x="40.4363" y="35.8535" width="5.52173" height="5.52173" rx="0.1" fill="url(#paint35_linear_3314_6308)"/>
<rect x="40.4363" y="45.9434" width="5.52173" height="5.52173" rx="0.1" fill="#9896A1"/>
<rect x="40.4363" y="45.9434" width="5.52173" height="5.52173" rx="0.1" fill="url(#paint36_linear_3314_6308)"/>
<rect x="40.4363" y="45.9434" width="5.52173" height="5.52173" rx="0.1" fill="url(#paint37_linear_3314_6308)"/>
<rect x="40.4363" y="45.9434" width="5.52173" height="5.52173" rx="0.1" fill="url(#paint38_linear_3314_6308)"/>
<rect x="40.4363" y="45.9434" width="5.52173" height="5.52173" rx="0.1" fill="url(#paint39_linear_3314_6308)"/>
<rect x="28.647" y="45.6973" width="5.52173" height="5.52173" rx="0.1" fill="#9896A1"/>
<rect x="28.647" y="45.6973" width="5.52173" height="5.52173" rx="0.1" fill="url(#paint40_linear_3314_6308)"/>
<rect x="28.647" y="45.6973" width="5.52173" height="5.52173" rx="0.1" fill="url(#paint41_linear_3314_6308)"/>
<rect x="28.647" y="45.6973" width="5.52173" height="5.52173" rx="0.1" fill="url(#paint42_linear_3314_6308)"/>
<rect x="28.647" y="45.6973" width="5.52173" height="5.52173" rx="0.1" fill="url(#paint43_linear_3314_6308)"/>
<rect x="28.647" y="35.8535" width="5.52173" height="5.52173" rx="0.1" fill="#9896A1"/>
<rect x="28.647" y="35.8535" width="5.52173" height="5.52173" rx="0.1" fill="url(#paint44_linear_3314_6308)"/>
<rect x="28.647" y="35.8535" width="5.52173" height="5.52173" rx="0.1" fill="url(#paint45_linear_3314_6308)"/>
<rect x="28.647" y="35.8535" width="5.52173" height="5.52173" rx="0.1" fill="url(#paint46_linear_3314_6308)"/>
<rect x="28.647" y="35.8535" width="5.52173" height="5.52173" rx="0.1" fill="url(#paint47_linear_3314_6308)"/>
<rect x="16.8574" y="45.6973" width="5.52173" height="5.52173" rx="0.1" fill="#9896A1"/>
<rect x="16.8574" y="45.6973" width="5.52173" height="5.52173" rx="0.1" fill="url(#paint48_linear_3314_6308)"/>
<rect x="16.8574" y="45.6973" width="5.52173" height="5.52173" rx="0.1" fill="url(#paint49_linear_3314_6308)"/>
<rect x="16.8574" y="45.6973" width="5.52173" height="5.52173" rx="0.1" fill="url(#paint50_linear_3314_6308)"/>
<rect x="16.8574" y="45.6973" width="5.52173" height="5.52173" rx="0.1" fill="url(#paint51_linear_3314_6308)"/>
<rect x="16.8574" y="35.8535" width="5.52173" height="5.52173" rx="0.1" fill="#9896A1"/>
<rect x="16.8574" y="35.8535" width="5.52173" height="5.52173" rx="0.1" fill="url(#paint52_linear_3314_6308)"/>
<rect x="16.8574" y="35.8535" width="5.52173" height="5.52173" rx="0.1" fill="url(#paint53_linear_3314_6308)"/>
<rect x="16.8574" y="35.8535" width="5.52173" height="5.52173" rx="0.1" fill="url(#paint54_linear_3314_6308)"/>
<rect x="16.8574" y="35.8535" width="5.52173" height="5.52173" rx="0.1" fill="url(#paint55_linear_3314_6308)"/>
<rect x="16.8574" y="26.0098" width="5.52173" height="5.52173" rx="0.1" fill="#9896A1"/>
<rect x="16.8574" y="26.0098" width="5.52173" height="5.52173" rx="0.1" fill="url(#paint56_linear_3314_6308)"/>
<rect x="16.8574" y="26.0098" width="5.52173" height="5.52173" rx="0.1" fill="url(#paint57_linear_3314_6308)"/>
<rect x="16.8574" y="26.0098" width="5.52173" height="5.52173" rx="0.1" fill="url(#paint58_linear_3314_6308)"/>
<rect x="16.8574" y="26.0098" width="5.52173" height="5.52173" rx="0.1" fill="url(#paint59_linear_3314_6308)"/>
<rect x="28.647" y="26.0098" width="5.52173" height="5.52173" rx="0.1" fill="#9896A1"/>
<rect x="28.647" y="26.0098" width="5.52173" height="5.52173" rx="0.1" fill="url(#paint60_linear_3314_6308)"/>
<rect x="28.647" y="26.0098" width="5.52173" height="5.52173" rx="0.1" fill="url(#paint61_linear_3314_6308)"/>
<rect x="28.647" y="26.0098" width="5.52173" height="5.52173" rx="0.1" fill="url(#paint62_linear_3314_6308)"/>
<rect x="28.647" y="26.0098" width="5.52173" height="5.52173" rx="0.1" fill="url(#paint63_linear_3314_6308)"/>
<path d="M58.7227 40.1389C58.842 40.0195 58.909 39.8577 58.909 39.689C58.909 39.3376 58.6242 39.0527 58.2728 39.0527H55.9709C47.0006 39.0527 39.7288 46.3246 39.7288 55.2949V57.5968C39.7288 57.9482 40.0136 58.233 40.365 58.233C40.5337 58.233 40.6956 58.166 40.8149 58.0467L58.7227 40.1389Z" fill="url(#paint64_radial_3314_6308)"/>
<path d="M58.7227 40.1389C58.842 40.0195 58.909 39.8577 58.909 39.689C58.909 39.3376 58.6242 39.0527 58.2728 39.0527H55.9709C47.0006 39.0527 39.7288 46.3246 39.7288 55.2949V57.5968C39.7288 57.9482 40.0136 58.233 40.365 58.233C40.5337 58.233 40.6956 58.166 40.8149 58.0467L58.7227 40.1389Z" fill="url(#paint65_linear_3314_6308)"/>
<path d="M58.7227 40.1389C58.842 40.0195 58.909 39.8577 58.909 39.689C58.909 39.3376 58.6242 39.0527 58.2728 39.0527H55.9709C47.0006 39.0527 39.7288 46.3246 39.7288 55.2949V57.5968C39.7288 57.9482 40.0136 58.233 40.365 58.233C40.5337 58.233 40.6956 58.166 40.8149 58.0467L58.7227 40.1389Z" fill="url(#paint66_radial_3314_6308)"/>
<rect x="16.0576" y="3.24609" width="4.92188" height="12.52" rx="2.46094" fill="url(#paint67_linear_3314_6308)"/>
<rect x="16.0576" y="3.24609" width="4.92188" height="12.52" rx="2.46094" fill="url(#paint68_radial_3314_6308)"/>
<rect x="16.0576" y="3.24609" width="4.92188" height="12.52" rx="2.46094" fill="url(#paint69_radial_3314_6308)"/>
<rect x="41.7437" y="3.24609" width="4.92188" height="12.52" rx="2.46094" fill="url(#paint70_linear_3314_6308)"/>
<rect x="41.7437" y="3.24609" width="4.92188" height="12.52" rx="2.46094" fill="url(#paint71_radial_3314_6308)"/>
<rect x="41.7437" y="3.24609" width="4.92188" height="12.52" rx="2.46094" fill="url(#paint72_radial_3314_6308)"/>
<defs>
<linearGradient id="paint0_linear_3314_6308" x1="10.1889" y1="35.6073" x2="55.1704" y2="35.6073" gradientUnits="userSpaceOnUse">
<stop stop-color="#E4DEEC"/>
<stop offset="1" stop-color="#E7E2EF"/>
</linearGradient>
<linearGradient id="paint1_linear_3314_6308" x1="2.81232" y1="34.0429" x2="9.17946" y2="34.0429" gradientUnits="userSpaceOnUse">
<stop stop-color="#AC9EBF" stop-opacity="0.73"/>
<stop offset="0.565214" stop-color="#AC9EBF" stop-opacity="0.226703"/>
<stop offset="0.831735" stop-color="#AC9EBF" stop-opacity="0.0550695"/>
<stop offset="1" stop-color="#AC9EBF" stop-opacity="0"/>
</linearGradient>
<linearGradient id="paint2_linear_3314_6308" x1="3.60275" y1="33.336" x2="9.77881" y2="33.336" gradientUnits="userSpaceOnUse">
<stop stop-color="#CCC9D1"/>
<stop offset="0.504059" stop-color="#CCC9D1" stop-opacity="0.381425"/>
<stop offset="0.748215" stop-color="#CCC9D1" stop-opacity="0.133098"/>
<stop offset="1" stop-color="#CCC9D1" stop-opacity="0"/>
</linearGradient>
<linearGradient id="paint3_linear_3314_6308" x1="2.66715" y1="34.4938" x2="6.87225" y2="34.4938" gradientUnits="userSpaceOnUse">
<stop stop-color="#AB9EBE" stop-opacity="0.62"/>
<stop offset="0.844796" stop-color="#AB9EBE" stop-opacity="0.03"/>
<stop offset="1" stop-color="#AB9EBE" stop-opacity="0"/>
</linearGradient>
<linearGradient id="paint4_linear_3314_6308" x1="16.5037" y1="62.6877" x2="16.5037" y2="50.9668" gradientUnits="userSpaceOnUse">
<stop stop-color="#AC9EBF"/>
<stop offset="0.777445" stop-color="#AC9EBF" stop-opacity="0.164632"/>
<stop offset="1" stop-color="#AC9EBF" stop-opacity="0"/>
</linearGradient>
<linearGradient id="paint5_linear_3314_6308" x1="19.9597" y1="61.8562" x2="19.9597" y2="55.275" gradientUnits="userSpaceOnUse">
<stop offset="0.364621" stop-color="#AC9EBF"/>
<stop offset="0.865223" stop-color="#AC9EBF" stop-opacity="0.0952221"/>
<stop offset="1" stop-color="#AC9EBF" stop-opacity="0"/>
</linearGradient>
<radialGradient id="paint6_radial_3314_6308" cx="0" cy="0" r="1" gradientUnits="userSpaceOnUse" gradientTransform="translate(48.3596 11.9381) rotate(133.809) scale(60.3539 36.6386)">
<stop stop-color="#AC9EBF" stop-opacity="0"/>
<stop offset="0.884758" stop-color="#AC9EBF" stop-opacity="0.0191153"/>
<stop offset="0.911221" stop-color="#AC9EBF" stop-opacity="0.116465"/>
<stop offset="1" stop-color="#AC9EBF" stop-opacity="0.73"/>
</radialGradient>
<radialGradient id="paint7_radial_3314_6308" cx="0" cy="0" r="1" gradientUnits="userSpaceOnUse" gradientTransform="translate(48.3596 11.9381) rotate(133.809) scale(60.3539 36.6386)">
<stop stop-color="#AB9EBE" stop-opacity="0"/>
<stop offset="0.941889" stop-color="#AB9EBE" stop-opacity="0.0191153"/>
<stop offset="0.968045" stop-color="#AB9EBE" stop-opacity="0.116465"/>
<stop offset="1" stop-color="#AB9EBE" stop-opacity="0.73"/>
</radialGradient>
<linearGradient id="paint8_linear_3314_6308" x1="59.1464" y1="32.6468" x2="54.1103" y2="32.6468" gradientUnits="userSpaceOnUse">
<stop offset="0.145191" stop-color="#F4F1F9"/>
<stop offset="0.616923" stop-color="#F4F1F9" stop-opacity="0.496781"/>
<stop offset="0.823441" stop-color="#F4F1F9" stop-opacity="0.121417"/>
<stop offset="1" stop-color="#F4F1F9" stop-opacity="0"/>
</linearGradient>
<linearGradient id="paint9_linear_3314_6308" x1="60.4642" y1="34.3527" x2="57.4958" y2="34.3527" gradientUnits="userSpaceOnUse">
<stop stop-color="#AB9EBE" stop-opacity="0.72"/>
<stop offset="0.85823" stop-color="#AB9EBE" stop-opacity="0.0549551"/>
<stop offset="1" stop-color="#AB9EBE" stop-opacity="0"/>
</linearGradient>
<linearGradient id="paint10_linear_3314_6308" x1="3.44784" y1="17.419" x2="54.8028" y2="17.419" gradientUnits="userSpaceOnUse">
<stop stop-color="#4271C7"/>
<stop offset="0.794195" stop-color="#4F9FDC"/>
</linearGradient>
<linearGradient id="paint11_linear_3314_6308" x1="31.5" y1="7.06055" x2="31.5" y2="10.8327" gradientUnits="userSpaceOnUse">
<stop offset="0.315625" stop-color="#5591D3"/>
<stop offset="1" stop-color="#5591D3" stop-opacity="0"/>
</linearGradient>
<radialGradient id="paint12_radial_3314_6308" cx="0" cy="0" r="1" gradientUnits="userSpaceOnUse" gradientTransform="translate(47.2445 19.4966) rotate(-55.7615) scale(12.7574 11.6928)">
<stop stop-color="#70C0F8" stop-opacity="0"/>
<stop offset="0.537712" stop-color="#70C0F8" stop-opacity="0.129121"/>
<stop offset="0.600109" stop-color="#70C0F8" stop-opacity="0.242949"/>
<stop offset="0.777418" stop-color="#70C0F8" stop-opacity="0.823821"/>
<stop offset="0.806938" stop-color="#70C0F8" stop-opacity="0.911572"/>
<stop offset="0.837741" stop-color="#70C0F8" stop-opacity="0.94"/>
<stop offset="0.877133" stop-color="#70C0F8" stop-opacity="0.95"/>
<stop offset="0.910017" stop-color="#70C0F8" stop-opacity="0.747082"/>
<stop offset="0.953809" stop-color="#70C0F8" stop-opacity="0.445935"/>
<stop offset="1" stop-color="#70C0F8" stop-opacity="0.07"/>
</radialGradient>
<radialGradient id="paint13_radial_3314_6308" cx="0" cy="0" r="1" gradientUnits="userSpaceOnUse" gradientTransform="translate(39.3642 12.3932) rotate(-32.5413) scale(11.6725 26.5566)">
<stop offset="0.411532" stop-color="#4F9FDC"/>
<stop offset="0.653004" stop-color="#4F9FDC" stop-opacity="0.82"/>
<stop offset="0.765553" stop-color="#4F9FDC" stop-opacity="0.42869"/>
<stop offset="0.858234" stop-color="#4F9FDC" stop-opacity="0.187929"/>
<stop offset="1" stop-color="#4F9FDC" stop-opacity="0"/>
</radialGradient>
<linearGradient id="paint14_linear_3314_6308" x1="41.6882" y1="22.0893" x2="41.6882" y2="18.5007" gradientUnits="userSpaceOnUse">
<stop stop-color="#437AC4"/>
<stop offset="0.837011" stop-color="#437AC4" stop-opacity="0.0841696"/>
<stop offset="1" stop-color="#437AC4" stop-opacity="0"/>
</linearGradient>
<linearGradient id="paint15_linear_3314_6308" x1="3.44784" y1="17.419" x2="54.8028" y2="17.419" gradientUnits="userSpaceOnUse">
<stop stop-color="#4271C7"/>
<stop offset="0.794195" stop-color="#4F9FDC" stop-opacity="0.25"/>
</linearGradient>
<radialGradient id="paint16_radial_3314_6308" cx="0" cy="0" r="1" gradientUnits="userSpaceOnUse" gradientTransform="translate(42.7441 20.4727) rotate(-170.157) scale(39.2302 21.8093)">
<stop offset="0.710095" stop-color="#3E62C2" stop-opacity="0"/>
<stop offset="1" stop-color="#3B41A1"/>
</radialGradient>
<radialGradient id="paint17_radial_3314_6308" cx="0" cy="0" r="1" gradientUnits="userSpaceOnUse" gradientTransform="translate(43.1574 13.1418) rotate(173.753) scale(3.86981)">
<stop offset="0.146645" stop-color="#407FC8"/>
<stop offset="0.874064" stop-color="#407FC8" stop-opacity="0.141953"/>
<stop offset="1" stop-color="#407FC8" stop-opacity="0"/>
</radialGradient>
<radialGradient id="paint18_radial_3314_6308" cx="0" cy="0" r="1" gradientUnits="userSpaceOnUse" gradientTransform="translate(42.2389 8.30235) rotate(-179.549) scale(4.33066 9.33496)">
<stop offset="0.12869" stop-color="#407FC8"/>
<stop offset="0.517303" stop-color="#407FC8" stop-opacity="0.624625"/>
<stop offset="0.841964" stop-color="#407FC8" stop-opacity="0.141953"/>
<stop offset="1" stop-color="#407FC8" stop-opacity="0"/>
</radialGradient>
<radialGradient id="paint19_radial_3314_6308" cx="0" cy="0" r="1" gradientUnits="userSpaceOnUse" gradientTransform="translate(17.2651 13.8692) rotate(-180) scale(3.3496)">
<stop stop-color="#375DB2"/>
<stop offset="0.83386" stop-color="#375DB2" stop-opacity="0.0893559"/>
<stop offset="1" stop-color="#375DB2" stop-opacity="0"/>
</radialGradient>
<radialGradient id="paint20_radial_3314_6308" cx="0" cy="0" r="1" gradientUnits="userSpaceOnUse" gradientTransform="translate(16.1186 9.84424) rotate(174.289) scale(3.36399 6.89009)">
<stop stop-color="#375DB2"/>
<stop offset="0.428737" stop-color="#375DB2" stop-opacity="0.606993"/>
<stop offset="0.83386" stop-color="#375DB2" stop-opacity="0.0893559"/>
<stop offset="1" stop-color="#375DB2" stop-opacity="0"/>
</radialGradient>
<linearGradient id="paint21_linear_3314_6308" x1="57.9444" y1="46.6058" x2="52.5112" y2="46.6058" gradientUnits="userSpaceOnUse">
<stop stop-color="#EFEAF6"/>
<stop offset="0.589482" stop-color="#EFEAF6" stop-opacity="0.2095"/>
<stop offset="0.848243" stop-color="#EFEAF6" stop-opacity="0.069066"/>
<stop offset="1" stop-color="#EFEAF6" stop-opacity="0"/>
</linearGradient>
<radialGradient id="paint22_radial_3314_6308" cx="0" cy="0" r="1" gradientUnits="userSpaceOnUse" gradientTransform="translate(45.6445 44.1967) rotate(47.0246) scale(15.1705 21.1261)">
<stop stop-color="#EFEAF6" stop-opacity="0"/>
<stop offset="0.382846" stop-color="#EFEAF6" stop-opacity="0.069066"/>
<stop offset="0.609706" stop-color="#EFEAF6" stop-opacity="0.38"/>
<stop offset="0.844218" stop-color="#EFEAF6"/>
</radialGradient>
<linearGradient id="paint23_linear_3314_6308" x1="47.7809" y1="47.2978" x2="51.1446" y2="50.7307" gradientUnits="userSpaceOnUse">
<stop stop-color="#A89BBA" stop-opacity="0.69"/>
<stop offset="0.880123" stop-color="#A89BBA" stop-opacity="0.0522108"/>
<stop offset="1" stop-color="#A89BBA" stop-opacity="0"/>
</linearGradient>
<linearGradient id="paint24_linear_3314_6308" x1="50.8186" y1="62.3981" x2="50.8186" y2="53.771" gradientUnits="userSpaceOnUse">
<stop offset="0.248984" stop-color="#A89BBA"/>
<stop offset="0.856001" stop-color="#A89BBA" stop-opacity="0.0971553"/>
<stop offset="1" stop-color="#A89BBA" stop-opacity="0"/>
</linearGradient>
<linearGradient id="paint25_linear_3314_6308" x1="60.8748" y1="43.368" x2="57.6231" y2="43.368" gradientUnits="userSpaceOnUse">
<stop stop-color="#A89BBA" stop-opacity="0.74"/>
<stop offset="0.839186" stop-color="#A89BBA" stop-opacity="0.0553304"/>
<stop offset="0.91781" stop-color="#A89BBA" stop-opacity="0.0244732"/>
<stop offset="1" stop-color="#A89BBA" stop-opacity="0"/>
</linearGradient>
<radialGradient id="paint26_radial_3314_6308" cx="0" cy="0" r="1" gradientUnits="userSpaceOnUse" gradientTransform="translate(43.4853 43.2593) rotate(44.9994) scale(17.5762 16.1966)">
<stop stop-color="#A89BBA" stop-opacity="0"/>
<stop offset="0.899092" stop-color="#A89BBA" stop-opacity="0.0553304"/>
<stop offset="0.920202" stop-color="#A89BBA" stop-opacity="0.090963"/>
<stop offset="0.938557" stop-color="#A89BBA" stop-opacity="0.171545"/>
<stop offset="1" stop-color="#A89BBA" stop-opacity="0.5"/>
</radialGradient>
<linearGradient id="paint27_linear_3314_6308" x1="40.4363" y1="28.7706" x2="40.7716" y2="28.7706" gradientUnits="userSpaceOnUse">
<stop stop-color="#92909B"/>
<stop offset="1" stop-color="#92909B" stop-opacity="0"/>
</linearGradient>
<linearGradient id="paint28_linear_3314_6308" x1="43.1971" y1="31.5315" x2="43.1971" y2="31.1331" gradientUnits="userSpaceOnUse">
<stop stop-color="#92909B"/>
<stop offset="1" stop-color="#92909B" stop-opacity="0"/>
</linearGradient>
<linearGradient id="paint29_linear_3314_6308" x1="43.1971" y1="26.0098" x2="43.1971" y2="26.3296" gradientUnits="userSpaceOnUse">
<stop stop-color="#A7A5AE"/>
<stop offset="1" stop-color="#A7A5AE" stop-opacity="0"/>
</linearGradient>
<linearGradient id="paint30_linear_3314_6308" x1="45.958" y1="29.1721" x2="45.5972" y2="29.1721" gradientUnits="userSpaceOnUse">
<stop stop-color="#A7A5AE"/>
<stop offset="1" stop-color="#A7A5AE" stop-opacity="0"/>
</linearGradient>
<linearGradient id="paint31_linear_3314_6308" x1="46.5425" y1="35.8535" x2="39.3442" y2="41.0215" gradientUnits="userSpaceOnUse">
<stop stop-color="#4C92DE"/>
<stop offset="1" stop-color="#4B91DB"/>
</linearGradient>
<linearGradient id="paint32_linear_3314_6308" x1="40.4363" y1="38.6144" x2="40.7644" y2="38.6144" gradientUnits="userSpaceOnUse">
<stop stop-color="#417FD1"/>
<stop offset="1" stop-color="#417FD1" stop-opacity="0"/>
</linearGradient>
<linearGradient id="paint33_linear_3314_6308" x1="42.9788" y1="41.3752" x2="42.9788" y2="41.0005" gradientUnits="userSpaceOnUse">
<stop stop-color="#417FD1"/>
<stop offset="1" stop-color="#417FD1" stop-opacity="0"/>
</linearGradient>
<linearGradient id="paint34_linear_3314_6308" x1="43.1971" y1="35.8535" x2="43.1971" y2="36.4716" gradientUnits="userSpaceOnUse">
<stop stop-color="#59A1EA"/>
<stop offset="1" stop-color="#59A1EA" stop-opacity="0"/>
</linearGradient>
<linearGradient id="paint35_linear_3314_6308" x1="45.958" y1="38.8971" x2="45.273" y2="38.8971" gradientUnits="userSpaceOnUse">
<stop stop-color="#59A1EA"/>
<stop offset="1" stop-color="#59A1EA" stop-opacity="0"/>
</linearGradient>
<linearGradient id="paint36_linear_3314_6308" x1="40.4363" y1="48.7042" x2="40.7716" y2="48.7042" gradientUnits="userSpaceOnUse">
<stop stop-color="#92909B"/>
<stop offset="1" stop-color="#92909B" stop-opacity="0"/>
</linearGradient>
<linearGradient id="paint37_linear_3314_6308" x1="43.1971" y1="51.4651" x2="43.1971" y2="51.0667" gradientUnits="userSpaceOnUse">
<stop stop-color="#92909B"/>
<stop offset="1" stop-color="#92909B" stop-opacity="0"/>
</linearGradient>
<linearGradient id="paint38_linear_3314_6308" x1="43.1971" y1="45.9434" x2="43.1971" y2="46.2632" gradientUnits="userSpaceOnUse">
<stop stop-color="#A7A5AE"/>
<stop offset="1" stop-color="#A7A5AE" stop-opacity="0"/>
</linearGradient>
<linearGradient id="paint39_linear_3314_6308" x1="45.958" y1="49.1057" x2="45.5972" y2="49.1057" gradientUnits="userSpaceOnUse">
<stop stop-color="#A7A5AE"/>
<stop offset="1" stop-color="#A7A5AE" stop-opacity="0"/>
</linearGradient>
<linearGradient id="paint40_linear_3314_6308" x1="28.647" y1="48.4581" x2="28.9823" y2="48.4581" gradientUnits="userSpaceOnUse">
<stop stop-color="#92909B"/>
<stop offset="1" stop-color="#92909B" stop-opacity="0"/>
</linearGradient>
<linearGradient id="paint41_linear_3314_6308" x1="31.4078" y1="51.219" x2="31.4078" y2="50.8206" gradientUnits="userSpaceOnUse">
<stop stop-color="#92909B"/>
<stop offset="1" stop-color="#92909B" stop-opacity="0"/>
</linearGradient>
<linearGradient id="paint42_linear_3314_6308" x1="31.4078" y1="45.6973" x2="31.4078" y2="46.0171" gradientUnits="userSpaceOnUse">
<stop stop-color="#A7A5AE"/>
<stop offset="1" stop-color="#A7A5AE" stop-opacity="0"/>
</linearGradient>
<linearGradient id="paint43_linear_3314_6308" x1="34.1687" y1="48.8596" x2="33.8079" y2="48.8596" gradientUnits="userSpaceOnUse">
<stop stop-color="#A7A5AE"/>
<stop offset="1" stop-color="#A7A5AE" stop-opacity="0"/>
</linearGradient>
<linearGradient id="paint44_linear_3314_6308" x1="28.647" y1="38.6144" x2="28.9823" y2="38.6144" gradientUnits="userSpaceOnUse">
<stop stop-color="#92909B"/>
<stop offset="1" stop-color="#92909B" stop-opacity="0"/>
</linearGradient>
<linearGradient id="paint45_linear_3314_6308" x1="31.4078" y1="41.3752" x2="31.4078" y2="40.9769" gradientUnits="userSpaceOnUse">
<stop stop-color="#92909B"/>
<stop offset="1" stop-color="#92909B" stop-opacity="0"/>
</linearGradient>
<linearGradient id="paint46_linear_3314_6308" x1="31.4078" y1="35.8535" x2="31.4078" y2="36.1734" gradientUnits="userSpaceOnUse">
<stop stop-color="#A7A5AE"/>
<stop offset="1" stop-color="#A7A5AE" stop-opacity="0"/>
</linearGradient>
<linearGradient id="paint47_linear_3314_6308" x1="34.1687" y1="39.0158" x2="33.8079" y2="39.0158" gradientUnits="userSpaceOnUse">
<stop stop-color="#A7A5AE"/>
<stop offset="1" stop-color="#A7A5AE" stop-opacity="0"/>
</linearGradient>
<linearGradient id="paint48_linear_3314_6308" x1="16.8574" y1="48.4581" x2="17.1927" y2="48.4581" gradientUnits="userSpaceOnUse">
<stop stop-color="#92909B"/>
<stop offset="1" stop-color="#92909B" stop-opacity="0"/>
</linearGradient>
<linearGradient id="paint49_linear_3314_6308" x1="19.6183" y1="51.219" x2="19.6183" y2="50.8206" gradientUnits="userSpaceOnUse">
<stop stop-color="#92909B"/>
<stop offset="1" stop-color="#92909B" stop-opacity="0"/>
</linearGradient>
<linearGradient id="paint50_linear_3314_6308" x1="19.6183" y1="45.6973" x2="19.6183" y2="46.0171" gradientUnits="userSpaceOnUse">
<stop stop-color="#A7A5AE"/>
<stop offset="1" stop-color="#A7A5AE" stop-opacity="0"/>
</linearGradient>
<linearGradient id="paint51_linear_3314_6308" x1="22.3792" y1="48.8596" x2="22.0183" y2="48.8596" gradientUnits="userSpaceOnUse">
<stop stop-color="#A7A5AE"/>
<stop offset="1" stop-color="#A7A5AE" stop-opacity="0"/>
</linearGradient>
<linearGradient id="paint52_linear_3314_6308" x1="16.8574" y1="38.6144" x2="17.1927" y2="38.6144" gradientUnits="userSpaceOnUse">
<stop stop-color="#92909B"/>
<stop offset="1" stop-color="#92909B" stop-opacity="0"/>
</linearGradient>
<linearGradient id="paint53_linear_3314_6308" x1="19.6183" y1="41.3752" x2="19.6183" y2="40.9769" gradientUnits="userSpaceOnUse">
<stop stop-color="#92909B"/>
<stop offset="1" stop-color="#92909B" stop-opacity="0"/>
</linearGradient>
<linearGradient id="paint54_linear_3314_6308" x1="19.6183" y1="35.8535" x2="19.6183" y2="36.1734" gradientUnits="userSpaceOnUse">
<stop stop-color="#A7A5AE"/>
<stop offset="1" stop-color="#A7A5AE" stop-opacity="0"/>
</linearGradient>
<linearGradient id="paint55_linear_3314_6308" x1="22.3792" y1="39.0158" x2="22.0183" y2="39.0158" gradientUnits="userSpaceOnUse">
<stop stop-color="#A7A5AE"/>
<stop offset="1" stop-color="#A7A5AE" stop-opacity="0"/>
</linearGradient>
<linearGradient id="paint56_linear_3314_6308" x1="16.8574" y1="28.7706" x2="17.1927" y2="28.7706" gradientUnits="userSpaceOnUse">
<stop stop-color="#92909B"/>
<stop offset="1" stop-color="#92909B" stop-opacity="0"/>
</linearGradient>
<linearGradient id="paint57_linear_3314_6308" x1="19.6183" y1="31.5315" x2="19.6183" y2="31.1331" gradientUnits="userSpaceOnUse">
<stop stop-color="#92909B"/>
<stop offset="1" stop-color="#92909B" stop-opacity="0"/>
</linearGradient>
<linearGradient id="paint58_linear_3314_6308" x1="19.6183" y1="26.0098" x2="19.6183" y2="26.3296" gradientUnits="userSpaceOnUse">
<stop stop-color="#A7A5AE"/>
<stop offset="1" stop-color="#A7A5AE" stop-opacity="0"/>
</linearGradient>
<linearGradient id="paint59_linear_3314_6308" x1="22.3792" y1="29.1721" x2="22.0183" y2="29.1721" gradientUnits="userSpaceOnUse">
<stop stop-color="#A7A5AE"/>
<stop offset="1" stop-color="#A7A5AE" stop-opacity="0"/>
</linearGradient>
<linearGradient id="paint60_linear_3314_6308" x1="28.647" y1="28.7706" x2="28.9823" y2="28.7706" gradientUnits="userSpaceOnUse">
<stop stop-color="#92909B"/>
<stop offset="1" stop-color="#92909B" stop-opacity="0"/>
</linearGradient>
<linearGradient id="paint61_linear_3314_6308" x1="31.4078" y1="31.5315" x2="31.4078" y2="31.1331" gradientUnits="userSpaceOnUse">
<stop stop-color="#92909B"/>
<stop offset="1" stop-color="#92909B" stop-opacity="0"/>
</linearGradient>
<linearGradient id="paint62_linear_3314_6308" x1="31.4078" y1="26.0098" x2="31.4078" y2="26.3296" gradientUnits="userSpaceOnUse">
<stop stop-color="#A7A5AE"/>
<stop offset="1" stop-color="#A7A5AE" stop-opacity="0"/>
</linearGradient>
<linearGradient id="paint63_linear_3314_6308" x1="34.1687" y1="29.1721" x2="33.8079" y2="29.1721" gradientUnits="userSpaceOnUse">
<stop stop-color="#A7A5AE"/>
<stop offset="1" stop-color="#A7A5AE" stop-opacity="0"/>
</linearGradient>
<radialGradient id="paint64_radial_3314_6308" cx="0" cy="0" r="1" gradientUnits="userSpaceOnUse" gradientTransform="translate(45.3124 43.8516) rotate(45.6992) scale(6.69475 16.2241)">
<stop offset="0.188388" stop-color="#E4DDED"/>
<stop offset="1" stop-color="#D5CFDC"/>
</radialGradient>
<linearGradient id="paint65_linear_3314_6308" x1="49.4351" y1="49.7807" x2="48.9277" y2="49.2732" gradientUnits="userSpaceOnUse">
<stop offset="0.461334" stop-color="#BFB8CA"/>
<stop offset="1" stop-color="#D9D3E0" stop-opacity="0"/>
</linearGradient>
<radialGradient id="paint66_radial_3314_6308" cx="0" cy="0" r="1" gradientUnits="userSpaceOnUse" gradientTransform="translate(50.3847 49.8525) rotate(-135.735) scale(8.62937 13.4769)">
<stop stop-color="#CDCEDE" stop-opacity="0"/>
<stop offset="0.86023" stop-color="#CDCEDE" stop-opacity="0"/>
<stop offset="0.912513" stop-color="#CDCEDE" stop-opacity="0.180902"/>
<stop offset="1" stop-color="#CDCEDE"/>
</radialGradient>
<linearGradient id="paint67_linear_3314_6308" x1="20.9795" y1="10.4355" x2="16.0576" y2="10.4355" gradientUnits="userSpaceOnUse">
<stop stop-color="#C0C0C1"/>
<stop offset="0.931802" stop-color="#A6A6A8"/>
</linearGradient>
<radialGradient id="paint68_radial_3314_6308" cx="0" cy="0" r="1" gradientUnits="userSpaceOnUse" gradientTransform="translate(18.5186 15.7661) rotate(-90) scale(7.58057 7.01807)">
<stop stop-color="#8C88AD"/>
<stop offset="1" stop-color="#9D9AA2" stop-opacity="0"/>
</radialGradient>
<radialGradient id="paint69_radial_3314_6308" cx="0" cy="0" r="1" gradientUnits="userSpaceOnUse" gradientTransform="translate(20.0522 7.48242) rotate(90) scale(5.625 3.03571)">
<stop stop-color="#D9D8DD"/>
<stop offset="0.345336" stop-color="#D2D1D5" stop-opacity="0.73815"/>
<stop offset="0.99631" stop-color="#BEBEC0" stop-opacity="0"/>
</radialGradient>
<linearGradient id="paint70_linear_3314_6308" x1="46.6655" y1="10.4355" x2="41.7437" y2="10.4355" gradientUnits="userSpaceOnUse">
<stop stop-color="#C0C0C1"/>
<stop offset="0.931802" stop-color="#A6A6A8"/>
</linearGradient>
<radialGradient id="paint71_radial_3314_6308" cx="0" cy="0" r="1" gradientUnits="userSpaceOnUse" gradientTransform="translate(44.2046 15.7661) rotate(-90) scale(7.58057 7.01807)">
<stop stop-color="#8C88AD"/>
<stop offset="1" stop-color="#9D9AA2" stop-opacity="0"/>
</radialGradient>
<radialGradient id="paint72_radial_3314_6308" cx="0" cy="0" r="1" gradientUnits="userSpaceOnUse" gradientTransform="translate(45.7383 7.48242) rotate(90) scale(5.625 3.03571)">
<stop stop-color="#D9D8DD"/>
<stop offset="0.418005" stop-color="#D1D0D5" stop-opacity="0.710557"/>
<stop offset="0.853264" stop-color="#C1C1C3" stop-opacity="0.105989"/>
<stop offset="0.99631" stop-color="#BEBEC0" stop-opacity="0"/>
</radialGradient>
</defs>
</svg>
