<svg width="27" height="28" viewBox="0 0 27 28" fill="none" xmlns="http://www.w3.org/2000/svg">
<path d="M25.309 14.3101C25.309 21.1315 19.9473 26.5925 13.417 26.5925C6.8868 26.5925 1.5251 21.1315 1.5251 14.3101C1.5251 7.48874 6.8868 2.02778 13.417 2.02778C19.9473 2.02778 25.309 7.48874 25.309 14.3101Z" fill="#E7EAED" stroke="white" stroke-width="2.76455"/>
<path fill-rule="evenodd" clip-rule="evenodd" d="M17.5588 9.61875C16.8154 8.87538 15.6107 8.87584 14.8679 9.61977L14.3199 10.1685L17.868 13.7166L18.4254 13.1448C19.1529 12.3983 19.1452 11.2052 18.4082 10.4682L17.5588 9.61875ZM16.8715 14.7391L13.3112 11.1788L9.32874 15.1673C8.82329 15.6735 8.52613 16.3511 8.49606 17.0661L8.45051 18.1493C8.41638 18.9608 9.06458 19.6374 9.87626 19.6375L10.8939 19.6375C11.6633 19.6376 12.4001 19.3268 12.9373 18.7756L16.8715 14.7391Z" fill="#143967"/>
</svg>
