<svg width="28" height="28" viewBox="0 0 28 28" fill="none" xmlns="http://www.w3.org/2000/svg">
<g id="Group 1321316301">
<circle id="Ellipse 240" cx="14" cy="14" r="14" fill="white"/>
<g id="Vector">
<path d="M23.7167 14.2319C23.7167 13.3759 23.6482 12.7513 23.5 12.1036H13.8588V15.9669H19.518C19.4039 16.927 18.7878 18.3728 17.4186 19.3444L17.3994 19.4738L20.4478 21.8678L20.659 21.8892C22.5986 20.0732 23.7167 17.4012 23.7167 14.2319Z" fill="#4285F4"/>
<path d="M13.8577 24.4108C16.6302 24.4108 18.9577 23.4853 20.6578 21.8892L17.4174 19.3444C16.5503 19.9574 15.3865 20.3854 13.8577 20.3854C11.1422 20.3854 8.83746 18.5694 8.01589 16.0594L7.89547 16.0697L4.72575 18.5567L4.68429 18.6735C6.3729 22.0742 9.84144 24.4108 13.8577 24.4108Z" fill="#34A853"/>
<path d="M8.01662 16.0589C7.79984 15.4111 7.67438 14.7171 7.67438 13.9999C7.67438 13.2827 7.79984 12.5887 8.00521 11.941L7.99947 11.8031L4.79003 9.2762L4.68502 9.32683C3.98906 10.738 3.58972 12.3227 3.58972 13.9999C3.58972 15.6771 3.98906 17.2618 4.68502 18.673L8.01662 16.0589Z" fill="#FBBC05"/>
<path d="M13.8577 7.61513C15.7859 7.61513 17.0866 8.45951 17.8282 9.16515L20.7263 6.29652C18.9464 4.61931 16.6302 3.58984 13.8577 3.58984C9.84145 3.58984 6.3729 5.92636 4.68429 9.32702L8.00449 11.9412C8.83747 9.43116 11.1422 7.61513 13.8577 7.61513Z" fill="#EB4335"/>
</g>
</g>
</svg>
