<svg width="21" height="20" viewBox="0 0 21 20" fill="none" xmlns="http://www.w3.org/2000/svg">
<path opacity="0.67" d="M10.3337 18.8824L2.19375 10.591L2.19189 10.5892C1.46493 9.85529 0.963959 8.92194 0.790797 7.90452C0.684688 7.26202 0.652697 6.49719 0.809998 5.67603L0.810024 5.67589C1.30802 3.07286 3.60495 1.19742 6.11255 1.46833L6.11584 1.46867C7.35167 1.59518 8.74183 2.24729 9.79599 4.25119C9.90633 4.46452 10.1224 4.5802 10.3364 4.5802C10.4483 4.5802 10.5974 4.54779 10.7284 4.43539C10.7997 4.37421 10.8518 4.301 10.8862 4.22305C11.9375 2.24325 13.3199 1.6012 14.5539 1.46841C17.0548 1.20428 19.3521 3.08013 19.8501 5.68323L19.8501 5.68337C20.0075 6.50482 19.9755 7.26297 19.869 7.91413C19.7033 8.91942 19.1975 9.85367 18.4664 10.5984L10.3337 18.8824Z" fill="#48658B" stroke="#48658B" stroke-width="1.179" stroke-miterlimit="10"/>
</svg>
