<svg width="24" height="25" viewBox="0 0 24 25" fill="none" xmlns="http://www.w3.org/2000/svg">
<g opacity="0.85" clip-path="url(#clip0_2194_3276)">
<g opacity="0.82">
<path d="M15.3442 14.8559C15.3442 14.571 15.5751 14.3401 15.86 14.3401H17.7758C18.0607 14.3401 18.2917 14.571 18.2917 14.8559V16.7718C18.2917 17.0566 18.0607 17.2876 17.7758 17.2876H15.86C15.5751 17.2876 15.3442 17.0566 15.3442 16.7718V14.8559Z" fill="#48658B"/>
<path d="M5.76479 11.1715C5.76479 10.8866 5.99572 10.6557 6.2806 10.6557H8.19647C8.48135 10.6557 8.71229 10.8866 8.71229 11.1715V13.0874C8.71229 13.3723 8.48135 13.6032 8.19647 13.6032H6.2806C5.99572 13.6032 5.76479 13.3723 5.76479 13.0874V11.1715ZM6.50166 11.3926V12.8663H7.97541V11.3926H6.50166Z" fill="#48658B"/>
<path d="M10.5545 11.1715C10.5545 10.8866 10.7854 10.6557 11.0703 10.6557H12.9862C13.271 10.6557 13.502 10.8866 13.502 11.1715V13.0874C13.502 13.3723 13.271 13.6032 12.9862 13.6032H11.0703C10.7854 13.6032 10.5545 13.3723 10.5545 13.0874V11.1715ZM11.2913 11.3926V12.8663H12.7651V11.3926H11.2913Z" fill="#48658B"/>
<path d="M15.3442 11.1715C15.3442 10.8866 15.5751 10.6557 15.86 10.6557H17.7758C18.0607 10.6557 18.2917 10.8866 18.2917 11.1715V13.0874C18.2917 13.3723 18.0607 13.6032 17.7758 13.6032H15.86C15.5751 13.6032 15.3442 13.3723 15.3442 13.0874V11.1715ZM16.081 11.3926V12.8663H17.5548V11.3926H16.081Z" fill="#48658B"/>
<path d="M5.76479 14.8559C5.76479 14.571 5.99572 14.3401 6.2806 14.3401H8.19647C8.48135 14.3401 8.71229 14.571 8.71229 14.8559V16.7718C8.71229 17.0566 8.48135 17.2876 8.19647 17.2876H6.2806C5.99572 17.2876 5.76479 17.0566 5.76479 16.7718V14.8559ZM6.50166 15.077V16.5507H7.97541V15.077H6.50166Z" fill="#48658B"/>
<path d="M10.5545 14.8559C10.5545 14.571 10.7854 14.3401 11.0703 14.3401H12.9862C13.271 14.3401 13.502 14.571 13.502 14.8559V16.7718C13.502 17.0566 13.271 17.2876 12.9862 17.2876H11.0703C10.7854 17.2876 10.5545 17.0566 10.5545 16.7718V14.8559ZM11.2913 15.077V16.5507H12.7651V15.077H11.2913Z" fill="#48658B"/>
<path d="M5.76479 18.5403C5.76479 18.2554 5.99572 18.0245 6.2806 18.0245H8.19647C8.48135 18.0245 8.71229 18.2554 8.71229 18.5403V20.4561C8.71229 20.741 8.48135 20.972 8.19647 20.972H6.2806C5.99572 20.972 5.76479 20.741 5.76479 20.4561V18.5403ZM6.50166 18.7613V20.2351H7.97541V18.7613H6.50166Z" fill="#48658B"/>
<path d="M10.5545 18.5403C10.5545 18.2554 10.7854 18.0245 11.0703 18.0245H12.9862C13.271 18.0245 13.502 18.2554 13.502 18.5403V20.4561C13.502 20.741 13.271 20.972 12.9862 20.972H11.0703C10.7854 20.972 10.5545 20.741 10.5545 20.4561V18.5403ZM11.2913 18.7613V20.2351H12.7651V18.7613H11.2913Z" fill="#48658B"/>
<path d="M11.2994 4.3923C11.2941 4.4579 11.2913 4.52424 11.2913 4.59122C11.2913 5.69857 12.0383 6.63146 13.0559 6.91349C13.3949 7.00745 13.6862 6.71448 13.6862 6.36271C13.6862 6.1038 13.4711 5.90134 13.2297 5.80775C12.7423 5.6188 12.3967 5.14537 12.3967 4.59122C12.3967 4.52359 12.4018 4.45716 12.4117 4.3923H14.9838C14.9785 4.4579 14.9757 4.52424 14.9757 4.59122C14.9757 5.69857 15.7227 6.63146 16.7403 6.91349C17.0792 7.00745 17.3706 6.71448 17.3706 6.36271C17.3706 6.1038 17.1555 5.90134 16.914 5.80775C16.4266 5.6188 16.081 5.14537 16.081 4.59122C16.081 4.52359 16.0862 4.45716 16.0961 4.3923H20.3117C21.8365 4.3923 23.0813 5.63855 23.0813 7.18152V20.0435C23.0813 21.9743 21.5155 23.551 19.5748 23.551H4.48163C2.54963 23.551 0.975098 21.9755 0.975098 20.0435V7.18152C0.975098 5.63855 2.21997 4.38488 3.74476 4.3923H3.93068C4.03182 3.15458 5.06837 2.18164 6.33217 2.18164C7.0711 2.18164 7.73235 2.51426 8.17435 3.03794C8.61636 2.51426 9.27761 2.18164 10.0165 2.18164C10.7555 2.18164 11.4167 2.51426 11.8587 3.03794C12.3007 2.51426 12.962 2.18164 13.7009 2.18164C14.4399 2.18164 15.1011 2.51426 15.5431 3.03794C15.9851 2.51426 16.6464 2.18164 17.3853 2.18164C18.6491 2.18164 19.6856 3.15456 19.7868 4.39227H18.6745C18.5787 3.76637 18.038 3.28695 17.3853 3.28695C16.7414 3.28695 16.2065 3.75355 16.1002 4.36708L16.1024 4.39227L16.0961 4.3923H14.9838L14.986 4.36708C14.8797 3.75355 14.3448 3.28695 13.7009 3.28695C13.057 3.28695 12.5221 3.75355 12.4158 4.36708L12.418 4.39227L12.4117 4.3923H11.2994ZM8.72735 4.3923H7.61507C7.60971 4.4579 7.60697 4.52424 7.60697 4.59122C7.60697 5.69857 8.35395 6.63146 9.37151 6.91349C9.71049 7.00745 10.0018 6.71448 10.0018 6.36271C10.0018 6.1038 9.7867 5.90134 9.54529 5.80775C9.05788 5.6188 8.71229 5.14537 8.71229 4.59122C8.71229 4.52359 8.71743 4.45716 8.72735 4.3923H11.2994L11.3016 4.36708C11.1954 3.75355 10.6604 3.28695 10.0165 3.28695C9.37264 3.28695 8.83772 3.75355 8.73146 4.36707L8.73365 4.39227L8.72735 4.3923ZM3.92688 4.44632C3.92404 4.49425 3.9226 4.54257 3.9226 4.59122C3.9226 5.69857 4.66957 6.63146 5.68713 6.91349C6.02611 7.00745 6.31744 6.71448 6.31744 6.36271C6.31744 6.1038 6.10233 5.90134 5.86092 5.80775C5.3735 5.6188 5.02791 5.14537 5.02791 4.59122C5.02791 4.52359 5.03305 4.45716 5.04297 4.3923H7.61507L7.61725 4.36707C7.51098 3.75355 6.97606 3.28695 6.33217 3.28695C5.67947 3.28695 5.13876 3.76639 5.04297 4.3923H4.48162C4.29175 4.39137 4.10621 4.41001 3.92688 4.44632ZM2.44885 20.0435C2.44885 21.1621 3.36406 22.0773 4.48163 22.0773H16.8253V20.972H15.86C15.5751 20.972 15.3442 20.741 15.3442 20.4561V18.5403C15.3442 18.2554 15.5751 18.0245 15.86 18.0245H17.7758C17.8268 18.0245 17.8761 18.0318 17.9226 18.0456C18.4722 17.5735 19.186 17.2876 19.9644 17.2876H21.6076V8.81352H2.44885V20.0435ZM17.5622 20.4267V21.9247L21.4624 18.0245H19.9644C18.6838 18.0245 17.6299 19.0383 17.5653 20.3035C17.5632 20.3443 17.5622 20.3854 17.5622 20.4267ZM16.081 18.7613V20.2351H16.8311L16.8317 20.2256L16.834 20.1913C16.8731 19.6692 17.0408 19.1819 17.3055 18.7613H16.081Z" fill="#48658B"/>
</g>
</g>
<defs>
<clipPath id="clip0_2194_3276">
<rect width="23.58" height="23.58" fill="white" transform="translate(0.238281 0.708008)"/>
</clipPath>
</defs>
</svg>
