<svg width="26" height="27" viewBox="0 0 26 27" fill="none" xmlns="http://www.w3.org/2000/svg">
<g opacity="0.85">
<path opacity="0.82" d="M17.216 5.69329C17.216 4.35709 18.3007 3.28027 19.629 3.28027C20.9573 3.28027 22.0342 4.35709 22.042 5.69329V10.5862C23.2911 10.919 24.2114 12.0579 24.2114 13.4118C24.2114 14.7658 23.2911 15.9047 22.042 16.2375V21.1382C22.042 22.4744 20.9573 23.5512 19.629 23.5512C19.0011 23.5512 18.4305 23.3117 18.002 22.92C17.5186 22.478 17.216 21.8423 17.216 21.1382V20.9557L12.5547 18.6623C12.0735 18.426 11.5622 18.2547 11.037 18.1528C10.7418 18.0992 10.4426 18.066 10.142 18.0542C10.0582 18.0509 9.97438 18.0492 9.89046 18.0492L9.88749 18.0414H8.56999V22.7717C8.56999 23.2983 8.14556 23.7228 7.61894 23.7228H5.59574C5.06912 23.7228 4.64468 23.2983 4.64468 22.7717V18.0414H3.6391C2.88784 18.0414 2.28198 17.4519 2.28198 16.7287V10.1028C2.28198 9.37177 2.88784 8.78227 3.6391 8.78227H9.89045C9.91457 8.78227 9.9387 8.78211 9.96281 8.78184C10.86 8.77096 11.7497 8.55801 12.5559 8.16956L17.216 5.87674V5.69329ZM6.21668 18.0414V22.1508H6.99799V18.0414H6.21668ZM16.0763 8.2344L13.4163 9.54315L13.4106 9.54588C12.6314 9.92157 11.7914 10.1736 10.928 10.2865V16.3537L11.0047 16.5556C11.8432 16.6739 12.6602 16.9249 13.4208 17.2984L13.4219 17.2989L16.0763 18.6049V8.2344Z" fill="#48658B"/>
</g>
</svg>
