<svg width="190" height="129" viewBox="0 0 190 129" fill="none" xmlns="http://www.w3.org/2000/svg">
<g filter="url(#filter0_d_2794_5062)">
<path d="M50.3289 116.715C50.7011 116.985 50.8965 117.431 50.8965 118.044C50.8965 118.611 50.6546 119.122 50.1707 119.577C49.6869 120.032 49.0914 120.255 48.3657 120.255C47.5003 120.255 46.849 119.986 46.3931 119.447C45.9465 118.908 45.7139 118.351 45.7139 117.774H46.8025C46.7839 118.22 46.9142 118.592 47.2119 118.889C47.5003 119.187 47.8818 119.335 48.3563 119.335C48.8588 119.335 49.231 119.196 49.4636 118.917C49.7055 118.639 49.8172 118.36 49.8172 118.081C49.8172 117.747 49.6776 117.496 49.4078 117.328C49.1379 117.161 48.8402 117.003 48.5238 116.855C48.0307 116.622 47.4724 116.39 46.849 116.139C46.2256 115.888 45.9093 115.414 45.9093 114.718C45.9093 114.151 46.1512 113.658 46.6257 113.231C47.1002 112.804 47.6771 112.59 48.347 112.59C49.0542 112.59 49.6311 112.822 50.0684 113.277C50.5057 113.733 50.7476 114.244 50.7848 114.801H49.7055C49.7055 114.587 49.5845 114.318 49.3705 113.993C49.1565 113.668 48.8123 113.51 48.347 113.51C47.919 113.51 47.5934 113.63 47.3515 113.881C47.1095 114.123 46.9979 114.392 46.9979 114.68C46.9979 115.052 47.2677 115.331 47.7981 115.517C48.3377 115.702 48.7657 115.879 49.11 116.028C49.538 116.213 49.9474 116.446 50.3196 116.715H50.3289Z" fill="white"/>
<path d="M52.5713 120.022V112.747H57.3724V113.648H53.6692V115.804H57.2701V116.714H53.6692V119.121H57.4562V120.032H52.5713V120.022Z" fill="white"/>
<path d="M65.4209 113.667C66.1653 114.42 66.5467 115.312 66.5467 116.362C66.5467 117.412 66.1746 118.313 65.4209 119.056C64.6765 119.809 63.774 120.18 62.7226 120.18C61.6712 120.18 60.7686 119.809 60.0243 119.056C59.2706 118.304 58.8984 117.402 58.8984 116.362C58.8984 115.321 59.2706 114.411 60.0243 113.667C60.7779 112.915 61.6712 112.543 62.7226 112.543C63.774 112.543 64.6765 112.915 65.4209 113.667ZM64.7138 118.359C65.2627 117.811 65.5419 117.152 65.5419 116.362C65.5419 115.572 65.2627 114.922 64.7138 114.373C64.1648 113.825 63.4949 113.546 62.7226 113.546C61.9503 113.546 61.2711 113.825 60.7221 114.373C60.1732 114.922 59.894 115.591 59.894 116.362C59.894 117.133 60.1732 117.811 60.7221 118.359C61.2711 118.908 61.941 119.177 62.7226 119.177C63.5042 119.177 64.1648 118.908 64.7138 118.359Z" fill="white"/>
<path d="M72.2225 120.022L69.2822 116.788V120.031H68.1936V112.756H69.2822V116.008L72.2225 112.756H73.5809L70.2592 116.389L73.5902 120.04L72.2225 120.022Z" fill="white"/>
<path d="M78.5773 117.422V120.051H77.4887V117.422L74.8369 112.767L76.0279 112.785L78.0284 116.297L80.0195 112.785H81.2384L78.5866 117.422H78.5773Z" fill="white"/>
<path d="M82.6714 120.022V112.747H87.4725V113.648H83.7693V115.804H87.3702V116.714H83.7693V119.121H87.5563V120.032H82.6714V120.022Z" fill="white"/>
<path d="M95.5117 113.667C96.2561 114.42 96.6283 115.312 96.6283 116.362C96.6283 117.412 96.2561 118.313 95.5117 119.056C94.7674 119.809 93.8648 120.18 92.8134 120.18C91.762 120.18 90.8595 119.809 90.1151 119.056C89.3707 118.304 88.9893 117.402 88.9893 116.362C88.9893 115.321 89.3614 114.411 90.1151 113.667C90.8688 112.915 91.7713 112.543 92.8134 112.543C93.8555 112.543 94.7674 112.915 95.5117 113.667ZM94.8046 118.359C95.3535 117.811 95.6327 117.152 95.6327 116.362C95.6327 115.572 95.3535 114.922 94.8046 114.373C94.2556 113.825 93.5857 113.546 92.8134 113.546C92.0411 113.546 91.3619 113.825 90.8129 114.373C90.264 114.922 89.9848 115.591 89.9848 116.362C89.9848 117.133 90.264 117.811 90.8129 118.359C91.3619 118.908 92.0318 119.177 92.8134 119.177C93.595 119.177 94.2556 118.908 94.8046 118.359Z" fill="white"/>
<path d="M102.844 120.069L99.3266 114.494V120.078H98.2473V112.803H99.4383L102.983 118.405V112.803H104.044V120.078H102.844V120.069Z" fill="white"/>
<path d="M113.2 116.232C113.2 117.43 112.809 118.387 112.037 119.112C111.264 119.837 110.38 120.19 109.375 120.19C108.324 120.19 107.422 119.818 106.668 119.066C105.914 118.313 105.542 117.412 105.542 116.362C105.542 115.312 105.914 114.411 106.668 113.667C107.422 112.915 108.324 112.543 109.375 112.543C110.241 112.543 111.004 112.803 111.674 113.314C112.344 113.825 112.809 114.494 113.06 115.312H111.999C111.823 114.903 111.515 114.513 111.078 114.132C110.641 113.751 110.073 113.556 109.375 113.556C108.622 113.556 107.97 113.825 107.403 114.364C106.835 114.903 106.556 115.572 106.556 116.371C106.556 117.17 106.845 117.858 107.422 118.397C107.998 118.935 108.65 119.196 109.385 119.196C110.185 119.196 110.808 118.963 111.255 118.508C111.711 118.053 111.99 117.597 112.111 117.161H108.966V116.241H113.2V116.232Z" fill="white"/>
<path d="M124.691 117.467C124.691 118.09 124.458 118.703 123.984 119.298C123.518 119.892 122.839 120.19 121.964 120.19C121.09 120.19 120.448 119.892 119.964 119.298C119.489 118.703 119.248 118.099 119.248 117.467V112.729H120.243V117.551C120.243 117.932 120.392 118.313 120.69 118.694C120.988 119.075 121.416 119.27 121.964 119.27C122.513 119.27 122.941 119.075 123.239 118.694C123.537 118.313 123.686 117.932 123.686 117.551V112.729H124.672V117.467H124.691Z" fill="white"/>
<path d="M130.86 120.069L127.343 114.494V120.078H126.263V112.803H127.454L130.999 118.405V112.803H132.06V120.078H130.86V120.069Z" fill="white"/>
<path d="M133.781 120.078V112.794H134.87V120.078H133.781Z" fill="white"/>
<path d="M140.518 120.097H139.476L136.405 112.812H137.577L139.997 118.601L142.425 112.812H143.579L140.518 120.097Z" fill="white"/>
<path d="M144.974 120.022V112.747H149.775V113.648H146.072V115.804H149.673V116.714H146.072V119.121H149.859V120.032H144.974V120.022Z" fill="white"/>
<path d="M155.563 120.069L152.613 116.483H154.316C154.698 116.483 155.023 116.353 155.312 116.092C155.6 115.832 155.74 115.488 155.74 115.08C155.74 114.671 155.591 114.299 155.302 114.03C155.014 113.76 154.679 113.63 154.307 113.63H152.492V120.088H151.478V112.812H154.474C155.033 112.812 155.554 113.026 156.019 113.444C156.484 113.862 156.726 114.411 156.726 115.08C156.726 115.749 156.484 116.25 156.01 116.668C155.535 117.077 155.033 117.3 154.521 117.319L156.782 120.097L155.554 120.078L155.563 120.069Z" fill="white"/>
<path d="M162.821 116.715C163.193 116.985 163.379 117.431 163.379 118.044C163.379 118.611 163.137 119.122 162.653 119.577C162.169 120.032 161.574 120.255 160.848 120.255C159.983 120.255 159.331 119.986 158.876 119.447C158.429 118.908 158.196 118.351 158.196 117.774H159.285C159.266 118.22 159.397 118.592 159.694 118.889C159.983 119.187 160.364 119.335 160.839 119.335C161.341 119.335 161.713 119.196 161.955 118.917C162.197 118.639 162.309 118.36 162.309 118.081C162.309 117.747 162.169 117.496 161.899 117.328C161.63 117.161 161.332 117.003 161.016 116.855C160.522 116.622 159.964 116.39 159.341 116.139C158.717 115.888 158.41 115.414 158.41 114.718C158.41 114.151 158.652 113.658 159.127 113.231C159.601 112.804 160.178 112.59 160.848 112.59C161.555 112.59 162.132 112.822 162.569 113.277C163.007 113.733 163.249 114.244 163.286 114.801H162.207C162.207 114.587 162.086 114.318 161.872 113.993C161.658 113.668 161.313 113.51 160.839 113.51C160.411 113.51 160.085 113.63 159.843 113.881C159.601 114.123 159.49 114.392 159.49 114.68C159.49 115.052 159.759 115.331 160.29 115.517C160.829 115.702 161.257 115.879 161.602 116.028C162.03 116.213 162.439 116.446 162.811 116.715H162.821Z" fill="white"/>
<path d="M165.193 120.078V112.794H166.282V120.078H165.193Z" fill="white"/>
<path d="M171.036 113.761V119.995H170.097V113.761H168.068V112.878H173.074V113.761H171.036Z" fill="white"/>
<path d="M178.35 117.422V120.051H177.261V117.422L174.609 112.767L175.8 112.785L177.801 116.297L179.792 112.785H181.002L178.35 117.422Z" fill="white"/>
</g>
<g filter="url(#filter1_d_2794_5062)">
<path d="M132.144 71.1774C132.451 71.4004 132.6 71.7535 132.6 72.2459C132.6 72.7105 132.404 73.11 132.013 73.4817C131.623 73.8534 131.139 74.0299 130.562 74.0299C129.864 74.0299 129.334 73.8162 128.971 73.3702C128.608 72.9335 128.422 72.4782 128.422 72.0137H129.296C129.278 72.376 129.39 72.6733 129.622 72.9149C129.855 73.1565 130.162 73.2773 130.543 73.2773C130.953 73.2773 131.25 73.1658 131.437 72.9428C131.632 72.7198 131.725 72.4968 131.725 72.2645C131.725 71.9951 131.613 71.7907 131.399 71.6513C131.176 71.5119 130.934 71.3911 130.683 71.2703C130.283 71.0845 129.827 70.8894 129.324 70.6943C128.813 70.4899 128.561 70.1089 128.561 69.5514C128.561 69.0869 128.757 68.6873 129.138 68.3436C129.52 67.9998 129.985 67.8232 130.534 67.8232C131.111 67.8232 131.576 68.0091 131.93 68.3807C132.283 68.7524 132.479 69.1612 132.507 69.6165H131.632C131.632 69.4399 131.539 69.2262 131.362 68.9661C131.195 68.7059 130.915 68.5758 130.534 68.5758C130.19 68.5758 129.92 68.678 129.734 68.8732C129.538 69.0683 129.445 69.282 129.445 69.5143C129.445 69.8116 129.659 70.0439 130.097 70.1925C130.525 70.3412 130.878 70.4806 131.157 70.6014C131.502 70.7593 131.827 70.9359 132.134 71.1588L132.144 71.1774Z" fill="white"/>
<path d="M133.986 73.8907V68H134.861V73.8907H133.986Z" fill="white"/>
<path d="M139.857 73.8907L137.019 69.3844V73.9H136.145V68.0186H137.112L139.978 72.5435V68.0186H140.834V73.9H139.857V73.8907Z" fill="white"/>
<path d="M147.087 69.7833C146.957 69.5882 146.724 69.3373 146.417 69.0493C146.101 68.752 145.645 68.6033 145.058 68.6033C144.398 68.6033 143.849 68.8356 143.421 69.3002C142.984 69.7647 142.77 70.285 142.77 70.8797C142.77 71.4743 142.984 72.004 143.412 72.4685C143.84 72.9331 144.388 73.1561 145.049 73.1561C145.626 73.1561 146.082 73.0074 146.408 72.7101C146.733 72.4128 146.947 72.1712 147.059 71.9668H147.934C147.729 72.5057 147.366 72.9795 146.854 73.3698C146.342 73.7693 145.738 73.9644 145.049 73.9644C144.193 73.9644 143.458 73.6578 142.853 73.0539C142.248 72.4499 141.941 71.7159 141.941 70.8704C141.941 70.0249 142.248 69.2909 142.853 68.6869C143.458 68.083 144.193 67.7764 145.049 67.7764C145.738 67.7764 146.342 67.9715 146.854 68.371C147.366 68.7705 147.729 69.2351 147.943 69.7833H147.068H147.087Z" fill="white"/>
<path d="M149.189 73.8619V67.9805H153.069V68.7052H150.073V70.4427H152.986V71.1767H150.073V73.1186H153.135V73.8526H149.189V73.8619Z" fill="white"/>
<path d="M159.815 73.983V68.7799H158.354V68.083H160.662V73.983H159.815Z" fill="white"/>
<path d="M165.761 68.5199C166.161 68.9195 166.366 69.4026 166.356 69.9694C166.356 70.1459 166.338 70.2946 166.31 70.4433C166.273 70.5826 166.217 70.722 166.152 70.8521L164.393 73.9554H163.528L164.765 71.7998C164.226 71.967 163.677 71.8834 163.128 71.5582C162.579 71.233 162.29 70.7127 162.262 69.988C162.234 69.4305 162.43 68.9566 162.849 68.5478C163.267 68.139 163.751 67.9346 164.309 67.9346C164.868 67.9346 165.361 68.139 165.761 68.5292V68.5199ZM165.212 70.8056C165.463 70.5547 165.584 70.2574 165.584 69.9043C165.584 69.5513 165.463 69.2447 165.212 68.9938C164.961 68.7429 164.663 68.6221 164.3 68.6221C163.937 68.6221 163.639 68.7429 163.388 68.9938C163.137 69.2447 163.016 69.542 163.016 69.9043C163.016 70.2667 163.137 70.5547 163.388 70.8056C163.639 71.0565 163.937 71.1773 164.3 71.1773C164.663 71.1773 164.961 71.0565 165.212 70.8056Z" fill="white"/>
<path d="M171.111 73.1381V73.8907H170.264V73.1381H167.547V72.497L170.329 68H171.111V72.3948H171.716V73.1381H171.111ZM170.274 69.5052L168.459 72.4041H170.274V69.5052Z" fill="white"/>
<path d="M176.936 68.7614L174.377 73.9088H173.493C173.493 73.9088 173.884 73.0912 174.665 71.5116C175.447 69.9414 175.903 69.0215 176.033 68.7614H173V68.0273H176.945V68.7707L176.936 68.7614Z" fill="white"/>
</g>
<g filter="url(#filter2_d_2794_5062)">
<path d="M87.2503 84.4832C87.4829 83.7678 87.7341 82.8665 87.7341 82.0303C87.7341 81.4728 87.6225 80.9339 87.3247 80.5065C86.8223 79.7818 85.8081 79.3822 84.2357 79.3265H74.7823V81.7701C75.7313 81.7701 82.8214 81.7701 82.8214 81.7701C83.5657 81.8166 84.0496 82.0396 84.3194 82.467C84.459 82.69 84.5148 82.9315 84.5148 83.1824C84.5148 83.6749 84.3101 84.223 84.0682 84.8084C82.0863 88.7665 77.7411 89.4448 74.0193 89.5098V91.8327C80.9698 91.7026 85.5569 89.1382 87.2689 84.4925L87.2503 84.4832ZM88.9996 91.1637C84.0775 91.1637 80.0858 95.1497 80.0858 100.065C80.0858 104.98 84.0775 108.966 88.9996 108.966C93.9216 108.966 97.9133 104.98 97.9133 100.065C97.9133 95.1497 93.9216 91.1637 88.9996 91.1637ZM88.9996 106.29C85.5569 106.29 82.7655 103.503 82.7655 100.065C82.7655 96.6271 85.5569 93.8396 88.9996 93.8396C92.4422 93.8396 95.2336 96.6271 95.2336 100.065C95.2336 103.503 92.4422 106.29 88.9996 106.29ZM69.0693 79.0199H68.1667V83.6284H60.323V86.1649H68.1667V95.1869H65.4591C60.5836 95.1869 56.6012 91.3031 56.3872 86.3229V79.0292H53.3633C53.3633 79.9769 53.3633 86.3415 53.3633 86.3415C53.1586 91.108 49.4554 94.8524 44.8403 95.1311V97.9464C48.7296 97.7699 52.2839 95.828 54.4333 92.576L54.8892 91.8884L55.3451 92.576C57.5782 95.9767 61.3652 98.0115 65.4777 98.0115H68.1854V106.634H71.1163V81.0547C71.1163 79.9397 70.2137 79.0292 69.0879 79.0292L69.0693 79.0199ZM94.6939 92.3344H97.6155V81.1476C97.6155 80.0326 96.713 79.1221 95.5965 79.1221H94.6939V81.2777H89.2973V83.5169H94.6939V86.072H89.2973V88.3113H94.6939V92.3251V92.3344ZM179.021 98.9034V85.5331C179.021 81.5192 175.792 79.4194 172.601 79.4194H158.542V82.086H172.601C174.248 82.086 175.606 83.1081 175.997 84.9478V98.9034H171.763V90.5505C171.763 89.4355 170.861 88.525 169.735 88.525H168.73V98.9034H165.222V90.5505C165.222 89.4355 164.31 88.525 163.194 88.525H162.291V98.9034H156.95V101.143H181.645V98.9034H179.002H179.021ZM151.879 81.0454C151.879 79.9304 150.968 79.0199 149.851 79.0199H148.856V94.1927H151.879V86.6481H155.611V84.1115H151.879V81.0361V81.0454ZM122.654 79.3172H121.751V84.1208H118.206V81.3427C118.206 80.2277 117.304 79.3172 116.178 79.3172H115.182V92.734H105.45L105.385 92.7154C105.078 92.641 104.138 92.4088 103.989 91.0058V81.7515H111.144V79.3079H101.151V91.3031C101.151 93.4308 102.975 95.159 105.217 95.159H115.173V106.615H118.206V86.5459H121.751V106.615H124.673V81.3241C124.673 80.2092 123.771 79.2986 122.645 79.2986L122.654 79.3172ZM145.859 96.2647H131.4V98.8012H145.859C147.795 98.8012 148.632 99.6003 148.753 101.598V106.634H151.777V101.598C151.777 98.9592 151.07 96.2647 145.859 96.2647ZM143.533 86.8339C143.533 84.9478 142.789 83.2382 141.598 81.9467H144.157V79.4101H137.681V78.8898C137.681 77.7748 136.769 76.8643 135.652 76.8643H134.75V79.4101H128.274V81.9467H130.833C129.642 83.2382 128.897 84.9385 128.897 86.8339C128.897 90.8385 132.173 94.0905 136.211 94.0905C140.249 94.0905 143.524 90.8385 143.524 86.8339H143.533ZM131.549 86.8339C131.549 84.2788 133.633 82.2068 136.211 82.2068C138.788 82.2068 140.872 84.2788 140.872 86.8339C140.872 89.3891 138.788 91.461 136.211 91.461C133.633 91.461 131.549 89.3891 131.549 86.8339Z" fill="white"/>
</g>
<g filter="url(#filter3_d_2794_5062)">
<path d="M48.3381 61.5976C50.4595 58.1505 51.8552 53.8764 53.1951 49.7418C54.7117 45.0868 56.2842 40.2831 58.9174 36.3714C68.6685 20.892 81.5832 16.8967 93.6604 14.5088C81.0156 16.6179 66.7518 20.6225 56.7587 36.5015C51.8366 43.8046 50.7666 54.276 46.1795 61.7184C44.1511 65.0075 39.8059 71.8739 29.5337 72.5986C35.8887 72.7565 42.9136 70.3965 48.3288 61.5976H48.3381Z" fill="white"/>
<path d="M110.893 12.3168C95.2331 16.9161 74.6143 14.7419 60.5738 37.0226C55.6517 44.3257 54.591 54.7971 50.0039 62.2395C47.0171 67.0896 38.0755 80.3205 15.0189 69.7005C14.5909 69.4868 12.302 68.2882 11.2413 66.9874C10.4225 65.9746 10.1619 65.3707 10.1619 65.3707L7.96606 66.8573L10.2922 68.0931C11.2692 68.6784 12.823 69.5704 14.8328 70.4995C21.774 73.7143 33.8884 77.3101 44.3746 70.0814L44.4491 70.0164C57.0288 67.2754 78.8758 74.0396 90.0691 65.3707C105.775 54.6298 124.784 20.3074 125.361 7.84766C118.774 10.6072 113.479 11.6385 110.883 12.3168H110.893Z" fill="white"/>
</g>
<path d="M73.9065 51.4519C69.9986 54.4994 66.7979 56.8409 64.0903 58.6992C71.7572 58.6155 89.7986 62.8152 91.0268 63.1126C91.0733 63.1219 91.0268 63.2055 91.0268 63.2055C91.0268 63.2055 66.1745 59.0801 62.6946 60.5296C60.2196 61.5516 58.8146 65.0266 62.7225 69.4121C62.7411 69.4307 62.6015 69.4121 62.6201 69.4307C62.6201 69.4307 57.9027 65.3704 58.5261 62.2856C53.9483 65.0173 51.0081 66.1973 47.3979 68.2414C62.1921 59.331 88.2913 38.0351 100.89 28.7158C89.8079 38.7227 84.2624 43.7586 73.9065 51.4612V51.4519Z" fill="#97BDFA"/>
<defs>
<filter id="filter0_d_2794_5062" x="37.9325" y="104.762" width="150.85" height="23.2747" filterUnits="userSpaceOnUse" color-interpolation-filters="sRGB">
<feFlood flood-opacity="0" result="BackgroundImageFix"/>
<feColorMatrix in="SourceAlpha" type="matrix" values="0 0 0 0 0 0 0 0 0 0 0 0 0 0 0 0 0 0 127 0" result="hardAlpha"/>
<feOffset/>
<feGaussianBlur stdDeviation="3.8907"/>
<feComposite in2="hardAlpha" operator="out"/>
<feColorMatrix type="matrix" values="0 0 0 0 0.341176 0 0 0 0 0.501961 0 0 0 0 1 0 0 0 0.4 0"/>
<feBlend mode="normal" in2="BackgroundImageFix" result="effect1_dropShadow_2794_5062"/>
<feBlend mode="normal" in="SourceGraphic" in2="effect1_dropShadow_2794_5062" result="shape"/>
</filter>
<filter id="filter1_d_2794_5062" x="120.64" y="59.995" width="64.0857" height="21.8167" filterUnits="userSpaceOnUse" color-interpolation-filters="sRGB">
<feFlood flood-opacity="0" result="BackgroundImageFix"/>
<feColorMatrix in="SourceAlpha" type="matrix" values="0 0 0 0 0 0 0 0 0 0 0 0 0 0 0 0 0 0 127 0" result="hardAlpha"/>
<feOffset/>
<feGaussianBlur stdDeviation="3.8907"/>
<feComposite in2="hardAlpha" operator="out"/>
<feColorMatrix type="matrix" values="0 0 0 0 0.341176 0 0 0 0 0.501961 0 0 0 0 1 0 0 0 0.4 0"/>
<feBlend mode="normal" in2="BackgroundImageFix" result="effect1_dropShadow_2794_5062"/>
<feBlend mode="normal" in="SourceGraphic" in2="effect1_dropShadow_2794_5062" result="shape"/>
</filter>
<filter id="filter2_d_2794_5062" x="37.0589" y="69.0829" width="152.367" height="47.6644" filterUnits="userSpaceOnUse" color-interpolation-filters="sRGB">
<feFlood flood-opacity="0" result="BackgroundImageFix"/>
<feColorMatrix in="SourceAlpha" type="matrix" values="0 0 0 0 0 0 0 0 0 0 0 0 0 0 0 0 0 0 127 0" result="hardAlpha"/>
<feOffset/>
<feGaussianBlur stdDeviation="3.8907"/>
<feComposite in2="hardAlpha" operator="out"/>
<feColorMatrix type="matrix" values="0 0 0 0 0.341176 0 0 0 0 0.501961 0 0 0 0 1 0 0 0 0.4 0"/>
<feBlend mode="normal" in2="BackgroundImageFix" result="effect1_dropShadow_2794_5062"/>
<feBlend mode="normal" in="SourceGraphic" in2="effect1_dropShadow_2794_5062" result="shape"/>
</filter>
<filter id="filter3_d_2794_5062" x="0.184665" y="0.0662565" width="132.958" height="82.0081" filterUnits="userSpaceOnUse" color-interpolation-filters="sRGB">
<feFlood flood-opacity="0" result="BackgroundImageFix"/>
<feColorMatrix in="SourceAlpha" type="matrix" values="0 0 0 0 0 0 0 0 0 0 0 0 0 0 0 0 0 0 127 0" result="hardAlpha"/>
<feOffset/>
<feGaussianBlur stdDeviation="3.8907"/>
<feComposite in2="hardAlpha" operator="out"/>
<feColorMatrix type="matrix" values="0 0 0 0 0.341176 0 0 0 0 0.501961 0 0 0 0 1 0 0 0 0.4 0"/>
<feBlend mode="normal" in2="BackgroundImageFix" result="effect1_dropShadow_2794_5062"/>
<feBlend mode="normal" in="SourceGraphic" in2="effect1_dropShadow_2794_5062" result="shape"/>
</filter>
</defs>
</svg>
