<svg width="242" height="60" viewBox="0 0 242 60" fill="none" xmlns="http://www.w3.org/2000/svg">
<g clip-path="url(#clip0_2177_4203)">
<path d="M112.63 52.7276C112.971 52.9738 113.15 53.3695 113.15 53.9235C113.15 54.4336 112.926 54.8997 112.487 55.3042C112.038 55.7175 111.492 55.9197 110.828 55.9197C110.039 55.9197 109.429 55.6735 109.017 55.1898C108.604 54.6974 108.398 54.1962 108.398 53.6773H109.393C109.376 54.0818 109.501 54.416 109.77 54.6798C110.039 54.9524 110.389 55.0843 110.819 55.0843C111.285 55.0843 111.626 54.9612 111.841 54.7062C112.056 54.46 112.173 54.2049 112.173 53.9499C112.173 53.6509 112.047 53.4223 111.796 53.2728C111.545 53.1233 111.276 52.9826 110.989 52.8507C110.532 52.6484 110.021 52.4286 109.447 52.2088C108.873 51.9889 108.587 51.558 108.587 50.9249C108.587 50.4148 108.802 49.9663 109.241 49.5794C109.68 49.1925 110.209 48.999 110.828 48.999C111.483 48.999 112.012 49.2013 112.415 49.6146C112.818 50.0279 113.034 50.4852 113.07 50.9952H112.083C112.083 50.8017 111.976 50.5555 111.778 50.2653C111.581 49.9751 111.267 49.8256 110.837 49.8256C110.443 49.8256 110.138 49.94 109.922 50.1598C109.707 50.3796 109.591 50.6171 109.591 50.8809C109.591 51.2151 109.833 51.4701 110.326 51.6372C110.819 51.8042 111.223 51.9625 111.536 52.0944C111.931 52.2615 112.298 52.4726 112.648 52.7188L112.63 52.7276Z" fill="#4D66EC"/>
<path d="M114.701 55.7174V49.1484H119.113V49.9575H115.714V51.9009H119.023V52.7187H115.714V54.8908H119.202V55.7086H114.71L114.701 55.7174Z" fill="#4D66EC"/>
<path d="M126.509 49.9839C127.2 50.6611 127.541 51.4701 127.541 52.4198C127.541 53.3696 127.2 54.1786 126.509 54.8557C125.819 55.5328 124.994 55.8758 124.026 55.8758C123.058 55.8758 122.233 55.5416 121.542 54.8557C120.852 54.1786 120.511 53.3696 120.511 52.4198C120.511 51.4701 120.852 50.6611 121.542 49.9839C122.233 49.3068 123.058 48.9639 124.026 48.9639C124.994 48.9639 125.819 49.3068 126.509 49.9839ZM125.864 54.2226C126.375 53.7301 126.626 53.1233 126.626 52.4198C126.626 51.7163 126.375 51.1183 125.864 50.6259C125.353 50.1246 124.743 49.8784 124.035 49.8784C123.327 49.8784 122.699 50.1246 122.197 50.6259C121.686 51.1271 121.435 51.7251 121.435 52.4198C121.435 53.1145 121.686 53.7301 122.197 54.2226C122.708 54.715 123.318 54.9612 124.035 54.9612C124.752 54.9612 125.362 54.715 125.864 54.2226Z" fill="#4D66EC"/>
<path d="M132.759 55.7262L130.06 52.8066V55.735H129.065V49.166H130.06V52.1031L132.759 49.166H134.014L130.966 52.4549L134.023 55.7526L132.759 55.735V55.7262Z" fill="#4D66EC"/>
<path d="M138.605 53.3782V55.7526H137.6V53.3782L135.162 49.1748L136.264 49.1924L138.102 52.3582L139.932 49.1924H141.052L138.614 53.3782H138.605Z" fill="#4D66EC"/>
<path d="M142.361 55.7174V49.1484H146.773V49.9575H143.374V51.9009H146.683V52.7187H143.374V54.8908H146.862V55.7086H142.37L142.361 55.7174Z" fill="#4D66EC"/>
<path d="M154.169 49.9839C154.86 50.6611 155.201 51.4701 155.201 52.4198C155.201 53.3696 154.86 54.1786 154.169 54.8557C153.479 55.5328 152.654 55.8758 151.686 55.8758C150.718 55.8758 149.893 55.5416 149.202 54.8557C148.512 54.1786 148.171 53.3696 148.171 52.4198C148.171 51.4701 148.512 50.6611 149.202 49.9839C149.893 49.3068 150.718 48.9639 151.686 48.9639C152.654 48.9639 153.479 49.3068 154.169 49.9839ZM153.524 54.2226C154.035 53.7301 154.286 53.1233 154.286 52.4198C154.286 51.7163 154.035 51.1183 153.524 50.6259C153.013 50.1246 152.403 49.8784 151.695 49.8784C150.987 49.8784 150.359 50.1246 149.857 50.6259C149.346 51.1271 149.095 51.7251 149.095 52.4198C149.095 53.1145 149.346 53.7301 149.857 54.2226C150.368 54.715 150.978 54.9612 151.695 54.9612C152.412 54.9612 153.022 54.715 153.524 54.2226Z" fill="#4D66EC"/>
<path d="M160.921 55.7613L157.693 50.7313V55.7701H156.707V49.2012H157.81L161.064 54.2576V49.2012H162.033V55.7701H160.921V55.7613Z" fill="#4D66EC"/>
<path d="M170.434 52.2967C170.434 53.3783 170.075 54.2489 169.367 54.8997C168.658 55.5504 167.843 55.8758 166.928 55.8758C165.96 55.8758 165.135 55.5416 164.444 54.8645C163.754 54.1874 163.413 53.3696 163.413 52.4198C163.413 51.4701 163.754 50.6611 164.444 49.9839C165.135 49.3068 165.96 48.9639 166.928 48.9639C167.717 48.9639 168.425 49.1925 169.044 49.6586C169.663 50.1246 170.084 50.7226 170.317 51.4613H169.349C169.187 51.092 168.901 50.7402 168.506 50.3973C168.103 50.0543 167.583 49.8784 166.937 49.8784C166.247 49.8784 165.637 50.1246 165.126 50.6083C164.606 51.092 164.346 51.6987 164.346 52.4198C164.346 53.1409 164.606 53.7653 165.135 54.2489C165.664 54.7326 166.265 54.97 166.937 54.97C167.672 54.97 168.246 54.759 168.658 54.3457C169.08 53.9324 169.34 53.5278 169.447 53.1321H166.56V52.3055H170.452L170.434 52.2967Z" fill="#4D66EC"/>
<path d="M181.005 53.4134C181.005 53.9762 180.789 54.5302 180.359 55.0667C179.929 55.6031 179.31 55.8669 178.503 55.8669C177.696 55.8669 177.104 55.6031 176.665 55.0667C176.226 54.5302 176.011 53.9762 176.011 53.4134V49.1309H176.925V53.4838C176.925 53.8267 177.06 54.1697 177.337 54.5127C177.606 54.8556 178.001 55.0315 178.512 55.0315C179.023 55.0315 179.418 54.8556 179.687 54.5127C179.956 54.1697 180.099 53.8267 180.099 53.4838V49.1309H181.005V53.4134Z" fill="#4D66EC"/>
<path d="M186.671 55.7613L183.443 50.7313V55.7701H182.457V49.2012H183.551L186.806 54.2576V49.2012H187.774V55.7701H186.671V55.7613Z" fill="#4D66EC"/>
<path d="M189.352 55.7701V49.1924H190.347V55.7701H189.352Z" fill="#4D66EC"/>
<path d="M195.547 55.7877H194.597L191.773 49.21H192.849L195.072 54.4335L197.305 49.21H198.363L195.547 55.7877Z" fill="#4D66EC"/>
<path d="M199.645 55.7174V49.1484H204.056V49.9575H200.658V51.9009H203.966V52.7187H200.658V54.8908H204.137V55.7086H199.645V55.7174Z" fill="#4D66EC"/>
<path d="M209.382 55.7613L206.674 52.5164H208.243C208.593 52.5164 208.898 52.4021 209.158 52.1647C209.418 51.9272 209.552 51.6195 209.552 51.2501C209.552 50.8808 209.418 50.5466 209.149 50.3092C208.88 50.063 208.575 49.9486 208.234 49.9486H206.566V55.7789H205.634V49.21H208.387C208.907 49.21 209.373 49.4034 209.812 49.7816C210.242 50.1597 210.458 50.6521 210.458 51.2589C210.458 51.8657 210.234 52.3142 209.794 52.6835C209.355 53.0528 208.898 53.2551 208.422 53.2727L210.503 55.7789L209.382 55.7613Z" fill="#4D66EC"/>
<path d="M216.052 52.7276C216.393 52.9738 216.572 53.3695 216.572 53.9235C216.572 54.4336 216.348 54.8997 215.909 55.3042C215.461 55.7175 214.914 55.9197 214.25 55.9197C213.461 55.9197 212.852 55.6735 212.439 55.1898C212.027 54.6974 211.821 54.1962 211.821 53.6773H212.816C212.798 54.0818 212.923 54.416 213.192 54.6798C213.461 54.9524 213.811 55.0843 214.241 55.0843C214.708 55.0843 215.048 54.9612 215.263 54.7062C215.479 54.46 215.595 54.2049 215.595 53.9499C215.595 53.6509 215.47 53.4223 215.219 53.2728C214.968 53.1233 214.699 52.9826 214.412 52.8507C213.954 52.6484 213.443 52.4286 212.87 52.2088C212.296 51.9889 212.009 51.558 212.009 50.9249C212.009 50.4148 212.233 49.9663 212.663 49.5794C213.103 49.1925 213.632 48.999 214.25 48.999C214.905 48.999 215.434 49.2013 215.837 49.6146C216.241 50.0279 216.456 50.4852 216.492 50.9952H215.506C215.506 50.8017 215.398 50.5555 215.201 50.2653C215.003 49.9751 214.69 49.8256 214.259 49.8256C213.874 49.8256 213.569 49.94 213.345 50.1598C213.121 50.3796 213.013 50.6171 213.013 50.8809C213.013 51.2151 213.255 51.4701 213.748 51.6372C214.241 51.8042 214.645 51.9625 214.959 52.0944C215.353 52.2615 215.721 52.4726 216.07 52.7188L216.052 52.7276Z" fill="#4D66EC"/>
<path d="M218.231 55.7701V49.1924H219.226V55.7701H218.231Z" fill="#4D66EC"/>
<path d="M223.611 50.0717V55.7085H222.75V50.0717H220.885V49.2803H225.485V50.0717H223.611Z" fill="#4D66EC"/>
<path d="M230.326 53.3782V55.7526H229.331V53.3782L226.892 49.1748L227.986 49.1924L229.824 52.3582L231.653 49.1924H232.774L230.335 53.3782H230.326Z" fill="#4D66EC"/>
<path d="M187.846 11.6168C188.124 11.8103 188.258 12.1357 188.258 12.5842C188.258 12.9975 188.079 13.3668 187.72 13.701C187.361 14.0351 186.922 14.1934 186.384 14.1934C185.748 14.1934 185.254 14 184.923 13.6042C184.591 13.2085 184.421 12.804 184.421 12.3819H185.228C185.219 12.7073 185.317 12.9711 185.532 13.1997C185.748 13.4196 186.026 13.5251 186.384 13.5251C186.761 13.5251 187.03 13.4284 187.209 13.2261C187.388 13.0239 187.478 12.8216 187.478 12.6193C187.478 12.3731 187.379 12.1884 187.173 12.0653C186.967 11.9422 186.752 11.8279 186.519 11.7224C186.151 11.5553 185.73 11.3794 185.272 11.2035C184.806 11.0189 184.573 10.6759 184.573 10.1659C184.573 9.75257 184.752 9.39202 185.111 9.07545C185.461 8.76766 185.891 8.60938 186.393 8.60938C186.922 8.60938 187.343 8.77646 187.675 9.11062C187.998 9.44478 188.177 9.81412 188.204 10.2274H187.406C187.406 10.0691 187.317 9.87568 187.155 9.63825C187.003 9.40082 186.743 9.2865 186.393 9.2865C186.079 9.2865 185.828 9.37443 185.658 9.55031C185.479 9.72619 185.398 9.91965 185.398 10.1307C185.398 10.4033 185.595 10.6056 185.999 10.7463C186.393 10.887 186.716 11.0101 186.976 11.1156C187.299 11.2563 187.595 11.4234 187.872 11.6168H187.846Z" fill="#4D66EC"/>
<path d="M189.54 14.0702V8.75H190.347V14.0702H189.54Z" fill="#4D66EC"/>
<path d="M194.947 14.0614L192.338 9.98992V14.0702H191.54V8.75879H192.427L195.063 12.8479V8.75879H195.843V14.0702H194.947V14.0614Z" fill="#4D66EC"/>
<path d="M201.59 10.3594C201.465 10.1835 201.259 9.95485 200.972 9.69104C200.676 9.41843 200.263 9.28653 199.725 9.28653C199.116 9.28653 198.614 9.49758 198.219 9.91088C197.816 10.3242 197.627 10.8078 197.627 11.3443C197.627 11.8807 197.825 12.3643 198.219 12.7777C198.614 13.191 199.116 13.402 199.725 13.402C200.263 13.402 200.676 13.2701 200.981 12.9975C201.277 12.7249 201.483 12.5051 201.572 12.3292H202.379C202.191 12.8216 201.859 13.2437 201.384 13.5955C200.909 13.956 200.353 14.1319 199.725 14.1319C198.936 14.1319 198.264 13.8593 197.708 13.3141C197.152 12.7689 196.874 12.1093 196.874 11.3443C196.874 10.5792 197.152 9.91968 197.708 9.37446C198.264 8.82925 198.936 8.55664 199.725 8.55664C200.362 8.55664 200.918 8.73252 201.384 9.09306C201.859 9.45361 202.191 9.87571 202.388 10.3682H201.59V10.3594Z" fill="#4D66EC"/>
<path d="M203.518 14.0439V8.73242H207.087V9.39196H204.334V10.966H207.015V11.6344H204.334V13.3931H207.149V14.0615H203.518V14.0439Z" fill="#4D66EC"/>
<path d="M213.291 14.1493V9.45347H211.946V8.82031H214.071V14.1493H213.291Z" fill="#4D66EC"/>
<path d="M218.76 9.21611C219.128 9.57666 219.316 10.0076 219.307 10.5264C219.307 10.6847 219.289 10.8254 219.262 10.9485C219.226 11.0716 219.182 11.1947 219.11 11.3178L217.496 14.1143H216.707L217.846 12.162C217.344 12.3115 216.841 12.2412 216.339 11.9422C215.837 11.6432 215.577 11.1771 215.541 10.5264C215.515 10.0251 215.694 9.59425 216.079 9.22491C216.465 8.85557 216.913 8.6709 217.424 8.6709C217.935 8.6709 218.393 8.85557 218.76 9.21611ZM218.258 11.2739C218.482 11.0452 218.599 10.7814 218.599 10.456C218.599 10.1307 218.482 9.85806 218.258 9.63822C218.025 9.40958 217.756 9.30405 217.424 9.30405C217.093 9.30405 216.815 9.41837 216.581 9.63822C216.357 9.85806 216.241 10.1307 216.241 10.456C216.241 10.7814 216.357 11.0452 216.581 11.2739C216.815 11.4937 217.093 11.608 217.424 11.608C217.756 11.608 218.034 11.4937 218.258 11.2739Z" fill="#4D66EC"/>
<path d="M223.682 13.3843V14.0615H222.902V13.3843H220.401V12.8039L222.956 8.74121H223.682V12.7072H224.238V13.3755H223.682V13.3843ZM222.902 10.1042L221.235 12.7248H222.902V10.1042Z" fill="#4D66EC"/>
<path d="M229.026 9.42712L226.677 14.0702H225.861C225.861 14.0702 226.22 13.3316 226.937 11.907C227.654 10.4824 228.076 9.65576 228.192 9.41832H225.404V8.75879H229.026V9.42712Z" fill="#4D66EC"/>
<path d="M146.575 23.6287C146.791 22.9867 147.024 22.1689 147.024 21.4127C147.024 20.9026 146.916 20.4278 146.647 20.032C146.181 19.3725 145.248 19.012 143.805 18.968H135.108V21.1752C135.987 21.1752 142.496 21.1752 142.496 21.1752C143.177 21.2192 143.626 21.4215 143.868 21.8084C143.993 22.0106 144.047 22.2305 144.047 22.4591C144.047 22.9076 143.859 23.4001 143.635 23.9277C141.814 27.498 137.816 28.1135 134.391 28.1663V30.268C140.783 30.1537 144.997 27.8321 146.575 23.6463V23.6287ZM148.189 29.6612C143.661 29.6612 139.994 33.2579 139.994 37.6987C139.994 42.1396 143.661 45.7363 148.189 45.7363C152.717 45.7363 156.384 42.1396 156.384 37.6987C156.384 33.2579 152.717 29.6612 148.189 29.6612ZM148.189 43.318C145.024 43.318 142.46 40.803 142.46 37.6987C142.46 34.5945 145.024 32.0795 148.189 32.0795C151.354 32.0795 153.918 34.5945 153.918 37.6987C153.918 40.803 151.354 43.318 148.189 43.318ZM129.863 18.6954H129.038V22.8548H121.82V25.1412H129.038V33.2931H126.554C122.071 33.2931 118.404 29.7843 118.207 25.2819V18.6954H115.428C115.428 19.5484 115.428 25.2995 115.428 25.2995C115.239 29.6085 111.832 32.9765 107.591 33.2315V35.7729C111.169 35.6146 114.441 33.8647 116.405 30.9275L116.826 30.3032L117.248 30.9275C119.301 34.0054 122.789 35.8345 126.563 35.8345H129.047V43.617H131.737V20.5157C131.737 19.5044 130.903 18.6866 129.872 18.6866L129.863 18.6954ZM153.416 30.7165H156.106V20.6212C156.106 19.6099 155.272 18.7921 154.241 18.7921H153.416V20.7355H148.449V22.7581H153.416V25.0709H148.449V27.0934H153.416V30.7165ZM230.954 36.6523V24.5784C230.954 20.9554 227.986 19.0559 225.054 19.0559H212.125V21.4654H225.054C226.57 21.4654 227.816 22.3888 228.175 24.042V36.6435H224.283V29.0984C224.283 28.0871 223.449 27.2693 222.418 27.2693H221.495V36.6435H218.276V29.0984C218.276 28.0871 217.442 27.2693 216.411 27.2693H215.586V36.6435H210.682V38.6661H233.384V36.6435H230.954V36.6523ZM206.002 20.5245C206.002 19.5132 205.168 18.6954 204.137 18.6954H203.213V32.3961H205.993V25.5897H209.418V23.3033H205.993V20.5333L206.002 20.5245ZM179.131 18.968H178.306V23.3033H175.042V20.7971C175.042 19.7858 174.208 18.968 173.177 18.968H172.263V31.0858H163.324L163.27 31.0682C162.983 30.9979 162.122 30.7956 161.979 29.5293V21.1752H168.56V18.968H159.379V29.8019C159.379 31.7278 161.055 33.2843 163.118 33.2843H172.272V43.6346H175.06V25.5106H178.324V43.6346H181.014V20.7971C181.014 19.7858 180.18 18.968 179.149 18.968H179.131ZM200.461 34.2604H187.164V36.5468H200.461C202.236 36.5468 203.007 37.2679 203.124 39.0706V43.617H205.903V39.0706C205.903 36.6963 205.258 34.2604 200.461 34.2604ZM198.318 25.7568C198.318 24.0508 197.636 22.5119 196.543 21.3423H198.892V19.0559H192.938V18.5811C192.938 17.5698 192.104 16.752 191.073 16.752H190.249V19.0471H184.295V21.3335H186.644C185.55 22.5031 184.86 24.042 184.86 25.748C184.86 29.3622 187.873 32.2994 191.584 32.2994C195.296 32.2994 198.309 29.3622 198.309 25.748L198.318 25.7568ZM187.308 25.7568C187.308 23.4528 189.226 21.5797 191.593 21.5797C193.96 21.5797 195.879 23.4528 195.879 25.7568C195.879 28.0608 193.96 29.9338 191.593 29.9338C189.226 29.9338 187.308 28.0608 187.308 25.7568Z" fill="#4D66EC"/>
<path d="M37.119 48.5414C39.0736 45.4284 40.3557 41.5679 41.5841 37.8393C42.9738 33.6359 44.4263 29.2918 46.8471 25.7655C55.813 11.7834 67.684 8.17791 78.7928 6.03223C67.1639 7.94048 54.0557 11.5547 44.8656 25.8886C40.3378 32.4839 39.3516 41.9373 35.1465 48.6557C33.2816 51.628 29.2828 57.8276 19.8417 58.4784C25.6875 58.6191 32.1429 56.491 37.119 48.5502V48.5414Z" fill="url(#paint0_linear_2177_4203)"/>
<path d="M94.6266 4.03635C80.2363 8.19581 61.2733 6.226 48.3623 26.3462C43.8435 32.9415 42.8572 42.3948 38.6432 49.1221C35.8997 53.5014 27.6779 65.4521 6.48238 55.8581C6.08788 55.6647 3.98088 54.583 3.01256 53.4135C2.25942 52.4989 2.01734 51.9537 2.01734 51.9537L0 53.2991L2.14286 54.4159C3.03946 54.9436 4.47401 55.7526 6.31203 56.588C12.6958 59.49 23.8315 62.7349 33.4699 56.2187L33.5416 56.1659C45.1077 53.6949 65.1914 59.7977 75.4843 51.9713C89.9195 42.2453 107.394 11.2473 107.932 0C101.871 2.48864 97.0116 3.42078 94.6266 4.03635Z" fill="url(#paint1_linear_2177_4203)"/>
<path d="M60.6188 39.3694C57.0235 42.1219 54.0826 44.2412 51.5901 45.912C58.6373 45.8417 75.2243 49.6318 76.354 49.8956C76.3989 49.8956 76.354 49.9747 76.354 49.9747C76.354 49.9747 53.5088 46.255 50.308 47.5565C48.0306 48.4798 46.7395 51.6104 50.3349 55.5764C50.3528 55.594 50.2183 55.5764 50.2362 55.594C50.2362 55.594 45.8967 51.927 46.4705 49.1393C42.2655 51.6016 39.5578 52.6656 36.2314 54.5123C49.8328 46.466 73.8256 27.2428 85.4097 18.8184C75.2154 27.8584 70.1227 32.4048 60.6009 39.3606L60.6188 39.3694Z" fill="white"/>
</g>
<defs>
<linearGradient id="paint0_linear_2177_4203" x1="77.1376" y1="9.10658" x2="33.4455" y2="30.5362" gradientUnits="userSpaceOnUse">
<stop stop-color="#AFD0F8"/>
<stop offset="1" stop-color="#4D66EC"/>
</linearGradient>
<linearGradient id="paint1_linear_2177_4203" x1="104.902" y1="3.51751" x2="43.4917" y2="51.7154" gradientUnits="userSpaceOnUse">
<stop stop-color="#AFD0F8"/>
<stop offset="1" stop-color="#4D66EC"/>
</linearGradient>
<clipPath id="clip0_2177_4203">
<rect width="242" height="60" fill="white"/>
</clipPath>
</defs>
</svg>
