<svg width="45" height="50" viewBox="0 0 45 50" fill="none" xmlns="http://www.w3.org/2000/svg">
<g filter="url(#filter0_i_3477_4186)">
<path d="M32.6902 12.3489C32.6902 18.1647 27.9755 22.8794 22.1597 22.8794C16.3438 22.8794 11.6292 18.1647 11.6292 12.3489C11.6292 6.53304 16.3438 1.81836 22.1597 1.81836C27.9755 1.81836 32.6902 6.53304 32.6902 12.3489Z" fill="url(#paint0_radial_3477_4186)"/>
<path d="M32.6902 12.3489C32.6902 18.1647 27.9755 22.8794 22.1597 22.8794C16.3438 22.8794 11.6292 18.1647 11.6292 12.3489C11.6292 6.53304 16.3438 1.81836 22.1597 1.81836C27.9755 1.81836 32.6902 6.53304 32.6902 12.3489Z" fill="url(#paint1_linear_3477_4186)"/>
<path d="M32.6902 12.3489C32.6902 18.1647 27.9755 22.8794 22.1597 22.8794C16.3438 22.8794 11.6292 18.1647 11.6292 12.3489C11.6292 6.53304 16.3438 1.81836 22.1597 1.81836C27.9755 1.81836 32.6902 6.53304 32.6902 12.3489Z" fill="url(#paint2_radial_3477_4186)" fill-opacity="0.49"/>
<path d="M32.6902 12.3489C32.6902 18.1647 27.9755 22.8794 22.1597 22.8794C16.3438 22.8794 11.6292 18.1647 11.6292 12.3489C11.6292 6.53304 16.3438 1.81836 22.1597 1.81836C27.9755 1.81836 32.6902 6.53304 32.6902 12.3489Z" fill="url(#paint3_radial_3477_4186)"/>
<path d="M32.6902 12.3489C32.6902 18.1647 27.9755 22.8794 22.1597 22.8794C16.3438 22.8794 11.6292 18.1647 11.6292 12.3489C11.6292 6.53304 16.3438 1.81836 22.1597 1.81836C27.9755 1.81836 32.6902 6.53304 32.6902 12.3489Z" fill="url(#paint4_radial_3477_4186)" fill-opacity="0.75"/>
</g>
<path d="M0.917596 37.8486C3.27764 31.2322 9.25954 26.5328 16.2755 26.1824C18.4404 26.0743 20.6143 26 22.5 26C24.4185 26 26.6353 26.0769 28.8375 26.1881C35.7843 26.5388 41.7075 31.1906 44.0444 37.742C44.6175 39.3486 44.1188 41.1421 42.7986 42.2222L42.6723 42.3256C38.5088 45.732 33.5246 48.0341 28.1801 48.6463C25.9258 48.9046 23.6705 49.1053 22.1053 49.1053C20.5043 49.1053 18.1814 48.8953 15.8761 48.6286C10.6511 48.024 5.81516 45.6547 1.90554 42.136C0.752608 41.0984 0.340173 39.4674 0.86129 38.0064L0.917596 37.8486Z" fill="url(#paint5_linear_3477_4186)"/>
<path d="M0.917596 37.8486C3.27764 31.2322 9.25954 26.5328 16.2755 26.1824C18.4404 26.0743 20.6143 26 22.5 26C24.4185 26 26.6353 26.0769 28.8375 26.1881C35.7843 26.5388 41.7075 31.1906 44.0444 37.742C44.6175 39.3486 44.1188 41.1421 42.7986 42.2222L42.6723 42.3256C38.5088 45.732 33.5246 48.0341 28.1801 48.6463C25.9258 48.9046 23.6705 49.1053 22.1053 49.1053C20.5043 49.1053 18.1814 48.8953 15.8761 48.6286C10.6511 48.024 5.81516 45.6547 1.90554 42.136C0.752608 41.0984 0.340173 39.4674 0.86129 38.0064L0.917596 37.8486Z" fill="url(#paint6_linear_3477_4186)" fill-opacity="0.21"/>
<path d="M0.917596 37.8486C3.27764 31.2322 9.25954 26.5328 16.2755 26.1824C18.4404 26.0743 20.6143 26 22.5 26C24.4185 26 26.6353 26.0769 28.8375 26.1881C35.7843 26.5388 41.7075 31.1906 44.0444 37.742C44.6175 39.3486 44.1188 41.1421 42.7986 42.2222L42.6723 42.3256C38.5088 45.732 33.5246 48.0341 28.1801 48.6463C25.9258 48.9046 23.6705 49.1053 22.1053 49.1053C20.5043 49.1053 18.1814 48.8953 15.8761 48.6286C10.6511 48.024 5.81516 45.6547 1.90554 42.136C0.752608 41.0984 0.340173 39.4674 0.86129 38.0064L0.917596 37.8486Z" fill="url(#paint7_linear_3477_4186)"/>
<defs>
<filter id="filter0_i_3477_4186" x="11.3792" y="1.56836" width="21.311" height="21.3105" filterUnits="userSpaceOnUse" color-interpolation-filters="sRGB">
<feFlood flood-opacity="0" result="BackgroundImageFix"/>
<feBlend mode="normal" in="SourceGraphic" in2="BackgroundImageFix" result="shape"/>
<feColorMatrix in="SourceAlpha" type="matrix" values="0 0 0 0 0 0 0 0 0 0 0 0 0 0 0 0 0 0 127 0" result="hardAlpha"/>
<feOffset dx="-0.25" dy="-0.25"/>
<feGaussianBlur stdDeviation="1"/>
<feComposite in2="hardAlpha" operator="arithmetic" k2="-1" k3="1"/>
<feColorMatrix type="matrix" values="0 0 0 0 0.760784 0 0 0 0 0.729412 0 0 0 0 0.8 0 0 0 1 0"/>
<feBlend mode="normal" in2="shape" result="effect1_innerShadow_3477_4186"/>
</filter>
<radialGradient id="paint0_radial_3477_4186" cx="0" cy="0" r="1" gradientUnits="userSpaceOnUse" gradientTransform="translate(28.3119 6.89557) rotate(130.168) scale(20.9171)">
<stop offset="0.115849" stop-color="#DFDDE1"/>
<stop offset="0.853086" stop-color="#C2A4DF"/>
</radialGradient>
<linearGradient id="paint1_linear_3477_4186" x1="22.1597" y1="1.81836" x2="22.1597" y2="6.05828" gradientUnits="userSpaceOnUse">
<stop stop-color="#C4C4C5"/>
<stop offset="1" stop-color="#C4C4C5" stop-opacity="0"/>
</linearGradient>
<radialGradient id="paint2_radial_3477_4186" cx="0" cy="0" r="1" gradientUnits="userSpaceOnUse" gradientTransform="translate(27.8666 9.44579) rotate(138.327) scale(11.7912 10.8872)">
<stop stop-color="white"/>
<stop offset="1" stop-color="#FAEAFF" stop-opacity="0"/>
</radialGradient>
<radialGradient id="paint3_radial_3477_4186" cx="0" cy="0" r="1" gradientUnits="userSpaceOnUse" gradientTransform="translate(25.5382 12.3489) rotate(180) scale(14.4795 15.0436)">
<stop offset="0.62013" stop-color="#BDB5C5" stop-opacity="0"/>
<stop offset="0.951299" stop-color="#D7D5D9"/>
</radialGradient>
<radialGradient id="paint4_radial_3477_4186" cx="0" cy="0" r="1" gradientUnits="userSpaceOnUse" gradientTransform="translate(26.5118 13.0175) rotate(135) scale(14.1832 15.7507)">
<stop offset="0.725009" stop-color="#B08DCF" stop-opacity="0"/>
<stop offset="1" stop-color="#A283BF"/>
</radialGradient>
<linearGradient id="paint5_linear_3477_4186" x1="22.5" y1="25.3978" x2="22.5" y2="43.5557" gradientUnits="userSpaceOnUse">
<stop stop-color="#F6E8FF"/>
<stop offset="1" stop-color="#BBA4D2"/>
</linearGradient>
<linearGradient id="paint6_linear_3477_4186" x1="22.5" y1="25.3978" x2="22.5" y2="43.5557" gradientUnits="userSpaceOnUse">
<stop stop-color="white" stop-opacity="0.35"/>
<stop offset="0.111934" stop-color="white" stop-opacity="0"/>
<stop offset="0.28409" stop-color="#9D73C3" stop-opacity="0"/>
<stop offset="0.822589" stop-color="#9D73C3" stop-opacity="0.438597"/>
<stop offset="1" stop-color="#9D73C3" stop-opacity="0.37"/>
</linearGradient>
<linearGradient id="paint7_linear_3477_4186" x1="44.8413" y1="34.3139" x2="0.446645" y2="34.3139" gradientUnits="userSpaceOnUse">
<stop stop-color="white" stop-opacity="0.35"/>
<stop offset="0.0963498" stop-color="white" stop-opacity="0"/>
<stop offset="0.618352" stop-color="#CCBBDC" stop-opacity="0"/>
<stop offset="0.849901" stop-color="#B9A9CA" stop-opacity="0.5"/>
<stop offset="1" stop-color="#B6A0CB"/>
</linearGradient>
</defs>
</svg>
