<svg width="24" height="24" viewBox="0 0 24 24" fill="none" xmlns="http://www.w3.org/2000/svg">
<g clip-path="url(#clip0_2167_3312)">
<path d="M21.4981 21.9805C21.2414 21.9805 20.9953 21.8832 20.8138 21.7101C20.6323 21.537 20.5303 21.3023 20.5303 21.0575V19.006C20.4997 18.1364 20.1091 17.3138 19.4442 16.7181C18.7792 16.1223 17.8939 15.8021 16.9819 15.8273H7.94969C7.03776 15.8021 6.15247 16.1223 5.48749 16.7181C4.82251 17.3138 4.43197 18.1364 4.4013 19.006V21.0575C4.4013 21.3023 4.29935 21.537 4.11786 21.7101C3.93637 21.8832 3.69022 21.9805 3.43356 21.9805C3.1769 21.9805 2.93075 21.8832 2.74927 21.7101C2.56778 21.537 2.46582 21.3023 2.46582 21.0575V19.006C2.49665 17.6469 3.09117 16.3548 4.1191 15.4129C5.14702 14.4711 6.52451 13.9563 7.94969 13.9813H16.9819C18.4071 13.9563 19.7846 14.4711 20.8125 15.4129C21.8405 16.3548 22.435 17.6469 22.4658 19.006V21.0575C22.4658 21.3023 22.3639 21.537 22.1824 21.7101C22.0009 21.8832 21.7547 21.9805 21.4981 21.9805Z" fill="#BFBFBF"/>
<path d="M12.4658 1.98047C13.4547 1.98047 14.4214 2.27371 15.2437 2.82312C16.0659 3.37253 16.7068 4.15342 17.0852 5.06705C17.4637 5.98068 17.5627 6.98601 17.3697 7.95592C17.1768 8.92582 16.7006 9.81674 16.0014 10.516C15.3021 11.2153 14.4112 11.6915 13.4413 11.8844C12.4714 12.0773 11.466 11.9783 10.5524 11.5999C9.63877 11.2214 8.85788 10.5806 8.30847 9.75832C7.75907 8.93607 7.46582 7.96937 7.46582 6.98047C7.46723 5.65482 7.99447 4.38387 8.93185 3.44649C9.86922 2.50912 11.1402 1.98188 12.4658 1.98047ZM12.4658 9.98047C13.0592 9.98047 13.6392 9.80452 14.1325 9.47488C14.6259 9.14523 15.0104 8.6767 15.2375 8.12852C15.4645 7.58034 15.5239 6.97714 15.4082 6.3952C15.2924 5.81325 15.0067 5.27871 14.5871 4.85915C14.1676 4.43959 13.633 4.15387 13.0511 4.03811C12.4691 3.92236 11.8659 3.98177 11.3178 4.20883C10.7696 4.43589 10.3011 4.82041 9.97141 5.31376C9.64177 5.80711 9.46582 6.38712 9.46582 6.98047C9.46688 7.77579 9.78329 8.53824 10.3457 9.10062C10.908 9.663 11.6705 9.97941 12.4658 9.98047Z" fill="#BFBFBF"/>
</g>
<defs>
<clipPath id="clip0_2167_3312">
<rect width="24" height="24" fill="white"/>
</clipPath>
</defs>
</svg>
