<svg width="30" height="30" viewBox="0 0 30 30" fill="none" xmlns="http://www.w3.org/2000/svg">
<g id="Speaker high volume">
<g id="Ellipse 107">
<circle cx="17.8103" cy="14.9893" r="3.01758" fill="url(#paint0_radial_2167_3368)"/>
<circle cx="17.8103" cy="14.9893" r="3.01758" fill="url(#paint1_radial_2167_3368)"/>
<circle cx="17.8103" cy="14.9893" r="3.01758" fill="url(#paint2_radial_2167_3368)"/>
</g>
<g id="Rectangle 363">
<path d="M2.31226 9.97852C2.31226 9.15009 2.98383 8.47852 3.81226 8.47852H7.87866V21.501H3.81226C2.98383 21.501 2.31226 20.8294 2.31226 20.001V9.97852Z" fill="url(#paint3_linear_2167_3368)"/>
<path d="M2.31226 9.97852C2.31226 9.15009 2.98383 8.47852 3.81226 8.47852H7.87866V21.501H3.81226C2.98383 21.501 2.31226 20.8294 2.31226 20.001V9.97852Z" fill="url(#paint4_linear_2167_3368)"/>
<path d="M2.31226 9.97852C2.31226 9.15009 2.98383 8.47852 3.81226 8.47852H7.87866V21.501H3.81226C2.98383 21.501 2.31226 20.8294 2.31226 20.001V9.97852Z" fill="url(#paint5_linear_2167_3368)"/>
<path d="M2.31226 9.97852C2.31226 9.15009 2.98383 8.47852 3.81226 8.47852H7.87866V21.501H3.81226C2.98383 21.501 2.31226 20.8294 2.31226 20.001V9.97852Z" fill="url(#paint6_linear_2167_3368)"/>
<path d="M2.31226 9.97852C2.31226 9.15009 2.98383 8.47852 3.81226 8.47852H7.87866V21.501H3.81226C2.98383 21.501 2.31226 20.8294 2.31226 20.001V9.97852Z" fill="url(#paint7_linear_2167_3368)"/>
</g>
<g id="Rectangle 364">
<path d="M18.0593 6.43538C18.0593 4.9164 16.4429 3.94326 15.1005 4.65406L7.87866 8.47799V21.5005L15.0965 25.343C16.4391 26.0578 18.0593 25.0848 18.0593 23.5638V6.43538Z" fill="url(#paint8_linear_2167_3368)"/>
<path d="M18.0593 6.43538C18.0593 4.9164 16.4429 3.94326 15.1005 4.65406L7.87866 8.47799V21.5005L15.0965 25.343C16.4391 26.0578 18.0593 25.0848 18.0593 23.5638V6.43538Z" fill="url(#paint9_linear_2167_3368)"/>
<path d="M18.0593 6.43538C18.0593 4.9164 16.4429 3.94326 15.1005 4.65406L7.87866 8.47799V21.5005L15.0965 25.343C16.4391 26.0578 18.0593 25.0848 18.0593 23.5638V6.43538Z" fill="url(#paint10_radial_2167_3368)"/>
<path d="M18.0593 6.43538C18.0593 4.9164 16.4429 3.94326 15.1005 4.65406L7.87866 8.47799V21.5005L15.0965 25.343C16.4391 26.0578 18.0593 25.0848 18.0593 23.5638V6.43538Z" fill="url(#paint11_linear_2167_3368)" fill-opacity="0.4"/>
<path d="M18.0593 6.43538C18.0593 4.9164 16.4429 3.94326 15.1005 4.65406L7.87866 8.47799V21.5005L15.0965 25.343C16.4391 26.0578 18.0593 25.0848 18.0593 23.5638V6.43538Z" fill="url(#paint12_linear_2167_3368)"/>
<path d="M18.0593 6.43538C18.0593 4.9164 16.4429 3.94326 15.1005 4.65406L7.87866 8.47799V21.5005L15.0965 25.343C16.4391 26.0578 18.0593 25.0848 18.0593 23.5638V6.43538Z" fill="url(#paint13_linear_2167_3368)"/>
<path d="M18.0593 6.43538C18.0593 4.9164 16.4429 3.94326 15.1005 4.65406L7.87866 8.47799V21.5005L15.0965 25.343C16.4391 26.0578 18.0593 25.0848 18.0593 23.5638V6.43538Z" fill="url(#paint14_radial_2167_3368)"/>
</g>
<g id="Vector 1001 (Stroke)">
<path fill-rule="evenodd" clip-rule="evenodd" d="M21.1865 10.2644C21.5184 9.90134 22.0817 9.87597 22.4448 10.2078C23.1255 10.8298 24.505 12.4041 24.505 14.9204C24.505 17.3973 23.2 19.1492 22.4254 19.8167C22.0528 20.1378 21.4905 20.0961 21.1693 19.7235C20.8482 19.3509 20.89 18.7885 21.2626 18.4674C21.7288 18.0657 22.7237 16.7772 22.7237 14.9204C22.7237 13.1032 21.7327 11.97 21.2432 11.5227C20.8801 11.1909 20.8547 10.6276 21.1865 10.2644Z" fill="url(#paint15_linear_2167_3368)"/>
<path fill-rule="evenodd" clip-rule="evenodd" d="M21.1865 10.2644C21.5184 9.90134 22.0817 9.87597 22.4448 10.2078C23.1255 10.8298 24.505 12.4041 24.505 14.9204C24.505 17.3973 23.2 19.1492 22.4254 19.8167C22.0528 20.1378 21.4905 20.0961 21.1693 19.7235C20.8482 19.3509 20.89 18.7885 21.2626 18.4674C21.7288 18.0657 22.7237 16.7772 22.7237 14.9204C22.7237 13.1032 21.7327 11.97 21.2432 11.5227C20.8801 11.1909 20.8547 10.6276 21.1865 10.2644Z" fill="url(#paint16_radial_2167_3368)"/>
<path fill-rule="evenodd" clip-rule="evenodd" d="M21.1865 10.2644C21.5184 9.90134 22.0817 9.87597 22.4448 10.2078C23.1255 10.8298 24.505 12.4041 24.505 14.9204C24.505 17.3973 23.2 19.1492 22.4254 19.8167C22.0528 20.1378 21.4905 20.0961 21.1693 19.7235C20.8482 19.3509 20.89 18.7885 21.2626 18.4674C21.7288 18.0657 22.7237 16.7772 22.7237 14.9204C22.7237 13.1032 21.7327 11.97 21.2432 11.5227C20.8801 11.1909 20.8547 10.6276 21.1865 10.2644Z" fill="url(#paint17_radial_2167_3368)"/>
<path fill-rule="evenodd" clip-rule="evenodd" d="M21.1865 10.2644C21.5184 9.90134 22.0817 9.87597 22.4448 10.2078C23.1255 10.8298 24.505 12.4041 24.505 14.9204C24.505 17.3973 23.2 19.1492 22.4254 19.8167C22.0528 20.1378 21.4905 20.0961 21.1693 19.7235C20.8482 19.3509 20.89 18.7885 21.2626 18.4674C21.7288 18.0657 22.7237 16.7772 22.7237 14.9204C22.7237 13.1032 21.7327 11.97 21.2432 11.5227C20.8801 11.1909 20.8547 10.6276 21.1865 10.2644Z" fill="url(#paint18_radial_2167_3368)" fill-opacity="0.8"/>
<path fill-rule="evenodd" clip-rule="evenodd" d="M21.1865 10.2644C21.5184 9.90134 22.0817 9.87597 22.4448 10.2078C23.1255 10.8298 24.505 12.4041 24.505 14.9204C24.505 17.3973 23.2 19.1492 22.4254 19.8167C22.0528 20.1378 21.4905 20.0961 21.1693 19.7235C20.8482 19.3509 20.89 18.7885 21.2626 18.4674C21.7288 18.0657 22.7237 16.7772 22.7237 14.9204C22.7237 13.1032 21.7327 11.97 21.2432 11.5227C20.8801 11.1909 20.8547 10.6276 21.1865 10.2644Z" fill="url(#paint19_radial_2167_3368)" fill-opacity="0.7"/>
<path fill-rule="evenodd" clip-rule="evenodd" d="M21.1865 10.2644C21.5184 9.90134 22.0817 9.87597 22.4448 10.2078C23.1255 10.8298 24.505 12.4041 24.505 14.9204C24.505 17.3973 23.2 19.1492 22.4254 19.8167C22.0528 20.1378 21.4905 20.0961 21.1693 19.7235C20.8482 19.3509 20.89 18.7885 21.2626 18.4674C21.7288 18.0657 22.7237 16.7772 22.7237 14.9204C22.7237 13.1032 21.7327 11.97 21.2432 11.5227C20.8801 11.1909 20.8547 10.6276 21.1865 10.2644Z" fill="url(#paint20_radial_2167_3368)"/>
<path fill-rule="evenodd" clip-rule="evenodd" d="M21.1865 10.2644C21.5184 9.90134 22.0817 9.87597 22.4448 10.2078C23.1255 10.8298 24.505 12.4041 24.505 14.9204C24.505 17.3973 23.2 19.1492 22.4254 19.8167C22.0528 20.1378 21.4905 20.0961 21.1693 19.7235C20.8482 19.3509 20.89 18.7885 21.2626 18.4674C21.7288 18.0657 22.7237 16.7772 22.7237 14.9204C22.7237 13.1032 21.7327 11.97 21.2432 11.5227C20.8801 11.1909 20.8547 10.6276 21.1865 10.2644Z" fill="url(#paint21_radial_2167_3368)" fill-opacity="0.5"/>
<path fill-rule="evenodd" clip-rule="evenodd" d="M21.1865 10.2644C21.5184 9.90134 22.0817 9.87597 22.4448 10.2078C23.1255 10.8298 24.505 12.4041 24.505 14.9204C24.505 17.3973 23.2 19.1492 22.4254 19.8167C22.0528 20.1378 21.4905 20.0961 21.1693 19.7235C20.8482 19.3509 20.89 18.7885 21.2626 18.4674C21.7288 18.0657 22.7237 16.7772 22.7237 14.9204C22.7237 13.1032 21.7327 11.97 21.2432 11.5227C20.8801 11.1909 20.8547 10.6276 21.1865 10.2644Z" fill="url(#paint22_radial_2167_3368)"/>
</g>
<g id="Vector 1003 (Stroke)">
<path fill-rule="evenodd" clip-rule="evenodd" d="M21.9223 6.23373C22.1422 5.79378 22.6772 5.61546 23.1172 5.83543C24.0605 6.30709 28.3261 8.96481 28.3261 14.8375C28.3261 20.6892 24.1374 23.2093 23.2392 23.7498C23.2064 23.7695 23.178 23.7865 23.1544 23.801C22.7352 24.0583 22.1868 23.927 21.9295 23.5077C21.6722 23.0885 21.8036 22.5401 22.2228 22.2828C22.2464 22.2684 22.2738 22.2518 22.3048 22.2331C23.1396 21.7296 26.5449 19.6757 26.5449 14.8375C26.5449 9.95835 23.0114 7.77407 22.3206 7.42863C21.8806 7.20866 21.7023 6.67368 21.9223 6.23373Z" fill="url(#paint23_linear_2167_3368)"/>
<path fill-rule="evenodd" clip-rule="evenodd" d="M21.9223 6.23373C22.1422 5.79378 22.6772 5.61546 23.1172 5.83543C24.0605 6.30709 28.3261 8.96481 28.3261 14.8375C28.3261 20.6892 24.1374 23.2093 23.2392 23.7498C23.2064 23.7695 23.178 23.7865 23.1544 23.801C22.7352 24.0583 22.1868 23.927 21.9295 23.5077C21.6722 23.0885 21.8036 22.5401 22.2228 22.2828C22.2464 22.2684 22.2738 22.2518 22.3048 22.2331C23.1396 21.7296 26.5449 19.6757 26.5449 14.8375C26.5449 9.95835 23.0114 7.77407 22.3206 7.42863C21.8806 7.20866 21.7023 6.67368 21.9223 6.23373Z" fill="url(#paint24_radial_2167_3368)"/>
<path fill-rule="evenodd" clip-rule="evenodd" d="M21.9223 6.23373C22.1422 5.79378 22.6772 5.61546 23.1172 5.83543C24.0605 6.30709 28.3261 8.96481 28.3261 14.8375C28.3261 20.6892 24.1374 23.2093 23.2392 23.7498C23.2064 23.7695 23.178 23.7865 23.1544 23.801C22.7352 24.0583 22.1868 23.927 21.9295 23.5077C21.6722 23.0885 21.8036 22.5401 22.2228 22.2828C22.2464 22.2684 22.2738 22.2518 22.3048 22.2331C23.1396 21.7296 26.5449 19.6757 26.5449 14.8375C26.5449 9.95835 23.0114 7.77407 22.3206 7.42863C21.8806 7.20866 21.7023 6.67368 21.9223 6.23373Z" fill="url(#paint25_radial_2167_3368)"/>
<path fill-rule="evenodd" clip-rule="evenodd" d="M21.9223 6.23373C22.1422 5.79378 22.6772 5.61546 23.1172 5.83543C24.0605 6.30709 28.3261 8.96481 28.3261 14.8375C28.3261 20.6892 24.1374 23.2093 23.2392 23.7498C23.2064 23.7695 23.178 23.7865 23.1544 23.801C22.7352 24.0583 22.1868 23.927 21.9295 23.5077C21.6722 23.0885 21.8036 22.5401 22.2228 22.2828C22.2464 22.2684 22.2738 22.2518 22.3048 22.2331C23.1396 21.7296 26.5449 19.6757 26.5449 14.8375C26.5449 9.95835 23.0114 7.77407 22.3206 7.42863C21.8806 7.20866 21.7023 6.67368 21.9223 6.23373Z" fill="url(#paint26_radial_2167_3368)" fill-opacity="0.8"/>
<path fill-rule="evenodd" clip-rule="evenodd" d="M21.9223 6.23373C22.1422 5.79378 22.6772 5.61546 23.1172 5.83543C24.0605 6.30709 28.3261 8.96481 28.3261 14.8375C28.3261 20.6892 24.1374 23.2093 23.2392 23.7498C23.2064 23.7695 23.178 23.7865 23.1544 23.801C22.7352 24.0583 22.1868 23.927 21.9295 23.5077C21.6722 23.0885 21.8036 22.5401 22.2228 22.2828C22.2464 22.2684 22.2738 22.2518 22.3048 22.2331C23.1396 21.7296 26.5449 19.6757 26.5449 14.8375C26.5449 9.95835 23.0114 7.77407 22.3206 7.42863C21.8806 7.20866 21.7023 6.67368 21.9223 6.23373Z" fill="url(#paint27_radial_2167_3368)" fill-opacity="0.7"/>
<path fill-rule="evenodd" clip-rule="evenodd" d="M21.9223 6.23373C22.1422 5.79378 22.6772 5.61546 23.1172 5.83543C24.0605 6.30709 28.3261 8.96481 28.3261 14.8375C28.3261 20.6892 24.1374 23.2093 23.2392 23.7498C23.2064 23.7695 23.178 23.7865 23.1544 23.801C22.7352 24.0583 22.1868 23.927 21.9295 23.5077C21.6722 23.0885 21.8036 22.5401 22.2228 22.2828C22.2464 22.2684 22.2738 22.2518 22.3048 22.2331C23.1396 21.7296 26.5449 19.6757 26.5449 14.8375C26.5449 9.95835 23.0114 7.77407 22.3206 7.42863C21.8806 7.20866 21.7023 6.67368 21.9223 6.23373Z" fill="url(#paint28_radial_2167_3368)"/>
<path fill-rule="evenodd" clip-rule="evenodd" d="M21.9223 6.23373C22.1422 5.79378 22.6772 5.61546 23.1172 5.83543C24.0605 6.30709 28.3261 8.96481 28.3261 14.8375C28.3261 20.6892 24.1374 23.2093 23.2392 23.7498C23.2064 23.7695 23.178 23.7865 23.1544 23.801C22.7352 24.0583 22.1868 23.927 21.9295 23.5077C21.6722 23.0885 21.8036 22.5401 22.2228 22.2828C22.2464 22.2684 22.2738 22.2518 22.3048 22.2331C23.1396 21.7296 26.5449 19.6757 26.5449 14.8375C26.5449 9.95835 23.0114 7.77407 22.3206 7.42863C21.8806 7.20866 21.7023 6.67368 21.9223 6.23373Z" fill="url(#paint29_radial_2167_3368)" fill-opacity="0.7"/>
<path fill-rule="evenodd" clip-rule="evenodd" d="M21.9223 6.23373C22.1422 5.79378 22.6772 5.61546 23.1172 5.83543C24.0605 6.30709 28.3261 8.96481 28.3261 14.8375C28.3261 20.6892 24.1374 23.2093 23.2392 23.7498C23.2064 23.7695 23.178 23.7865 23.1544 23.801C22.7352 24.0583 22.1868 23.927 21.9295 23.5077C21.6722 23.0885 21.8036 22.5401 22.2228 22.2828C22.2464 22.2684 22.2738 22.2518 22.3048 22.2331C23.1396 21.7296 26.5449 19.6757 26.5449 14.8375C26.5449 9.95835 23.0114 7.77407 22.3206 7.42863C21.8806 7.20866 21.7023 6.67368 21.9223 6.23373Z" fill="url(#paint30_radial_2167_3368)"/>
</g>
</g>
<defs>
<radialGradient id="paint0_radial_2167_3368" cx="0" cy="0" r="1" gradientUnits="userSpaceOnUse" gradientTransform="translate(19.9536 13.0139) rotate(113.233) scale(5.43351)">
<stop offset="0.0970969" stop-color="#E1E0E4"/>
<stop offset="1" stop-color="#CECAD6"/>
</radialGradient>
<radialGradient id="paint1_radial_2167_3368" cx="0" cy="0" r="1" gradientUnits="userSpaceOnUse" gradientTransform="translate(19.8316 13.9904) rotate(145.55) scale(1.86847)">
<stop stop-color="#F4F6FE"/>
<stop offset="0.853531" stop-color="#F4F6FE" stop-opacity="0.11445"/>
<stop offset="1" stop-color="#F4F6FE" stop-opacity="0"/>
</radialGradient>
<radialGradient id="paint2_radial_2167_3368" cx="0" cy="0" r="1" gradientUnits="userSpaceOnUse" gradientTransform="translate(18.0655 14.2796) rotate(93.9172) scale(3.73595 3.80386)">
<stop offset="0.594478" stop-color="#D1CCD9" stop-opacity="0"/>
<stop offset="1" stop-color="#B9B6BF"/>
</radialGradient>
<linearGradient id="paint3_linear_2167_3368" x1="8.87476" y1="10.5439" x2="5.09546" y2="19.4502" gradientUnits="userSpaceOnUse">
<stop offset="0.213026" stop-color="#D2CED6"/>
<stop offset="1" stop-color="#DDD5E6"/>
</linearGradient>
<linearGradient id="paint4_linear_2167_3368" x1="5.09546" y1="8.47852" x2="5.09546" y2="13.2298" gradientUnits="userSpaceOnUse">
<stop stop-color="#C5C4C5"/>
<stop offset="1" stop-color="#C5C4C5" stop-opacity="0"/>
</linearGradient>
<linearGradient id="paint5_linear_2167_3368" x1="6.29663" y1="21.8525" x2="6.29663" y2="18.1025" gradientUnits="userSpaceOnUse">
<stop stop-color="#B6B0BD"/>
<stop offset="1" stop-color="#D8D0E1" stop-opacity="0"/>
</linearGradient>
<linearGradient id="paint6_linear_2167_3368" x1="2.31226" y1="17.1064" x2="4.7146" y2="17.1064" gradientUnits="userSpaceOnUse">
<stop offset="0.0243902" stop-color="#A5A5A5"/>
<stop offset="0.841518" stop-color="#BFBBC7" stop-opacity="0.116971"/>
<stop offset="1" stop-color="#C3BECB" stop-opacity="0"/>
</linearGradient>
<linearGradient id="paint7_linear_2167_3368" x1="8.42551" y1="19.4398" x2="7.51764" y2="19.4398" gradientUnits="userSpaceOnUse">
<stop offset="0.266667" stop-color="#CCC5D4"/>
<stop offset="1" stop-color="#CCC5D4" stop-opacity="0"/>
</linearGradient>
<linearGradient id="paint8_linear_2167_3368" x1="18.6013" y1="7.26216" x2="10.6326" y2="22.5551" gradientUnits="userSpaceOnUse">
<stop stop-color="#BFBAC4"/>
<stop offset="0.744925" stop-color="#CAC2D3"/>
</linearGradient>
<linearGradient id="paint9_linear_2167_3368" x1="6.79659" y1="17.4043" x2="10.7185" y2="17.4043" gradientUnits="userSpaceOnUse">
<stop stop-color="#C4BECC"/>
<stop offset="1" stop-color="#C4BECC" stop-opacity="0"/>
</linearGradient>
<radialGradient id="paint10_radial_2167_3368" cx="0" cy="0" r="1" gradientUnits="userSpaceOnUse" gradientTransform="translate(10.7791 6.52974) rotate(59.0362) scale(4.7832 16.754)">
<stop offset="0.114889" stop-color="#ABABAC"/>
<stop offset="1" stop-color="#C2BDC7" stop-opacity="0"/>
</radialGradient>
<linearGradient id="paint11_linear_2167_3368" x1="13.2346" y1="25.4123" x2="16.683" y2="15.9291" gradientUnits="userSpaceOnUse">
<stop stop-color="#E6E7EF"/>
<stop offset="1" stop-color="#D2CBDA" stop-opacity="0"/>
</linearGradient>
<linearGradient id="paint12_linear_2167_3368" x1="11.658" y1="23.8735" x2="13.24" y2="20.8852" gradientUnits="userSpaceOnUse">
<stop stop-color="#B3AFB8"/>
<stop offset="0.783702" stop-color="#C6BFCF" stop-opacity="0.16293"/>
<stop offset="1" stop-color="#CAC2D3" stop-opacity="0"/>
</linearGradient>
<linearGradient id="paint13_linear_2167_3368" x1="19.1806" y1="20.3371" x2="16.0072" y2="20.3371" gradientUnits="userSpaceOnUse">
<stop stop-color="#E6E7EF"/>
<stop offset="1" stop-color="#D2CBDA" stop-opacity="0"/>
</linearGradient>
<radialGradient id="paint14_radial_2167_3368" cx="0" cy="0" r="1" gradientUnits="userSpaceOnUse" gradientTransform="translate(17.2537 10.9243) rotate(90) scale(18.2574 2.53073)">
<stop stop-color="#F8F6FB"/>
<stop offset="0.164071" stop-color="#F6F5FA" stop-opacity="0.91138"/>
<stop offset="0.887652" stop-color="#E8E7EF" stop-opacity="0.0843192"/>
<stop offset="1" stop-color="#E7E6EE" stop-opacity="0"/>
</radialGradient>
<linearGradient id="paint15_linear_2167_3368" x1="23.5839" y1="12.8076" x2="23.5839" y2="17.9277" gradientUnits="userSpaceOnUse">
<stop stop-color="#41AEFF"/>
<stop offset="1" stop-color="#4998F7"/>
</linearGradient>
<radialGradient id="paint16_radial_2167_3368" cx="0" cy="0" r="1" gradientUnits="userSpaceOnUse" gradientTransform="translate(18.3311 15.1077) scale(6.14521 6.26096)">
<stop offset="0.838304" stop-color="#5BC7FF" stop-opacity="0"/>
<stop offset="0.861938" stop-color="#5BC7FF" stop-opacity="0.209488"/>
<stop offset="0.880412" stop-color="#5BC7FF" stop-opacity="0.410063"/>
<stop offset="0.906369" stop-color="#5BC7FF" stop-opacity="0.77"/>
<stop offset="0.926299" stop-color="#5BC7FF" stop-opacity="0.956213"/>
<stop offset="0.936429" stop-color="#5BC7FF" stop-opacity="0.906812"/>
<stop offset="0.959075" stop-color="#5BC7FF" stop-opacity="0.682004"/>
<stop offset="1" stop-color="#5BC7FF" stop-opacity="0"/>
</radialGradient>
<radialGradient id="paint17_radial_2167_3368" cx="0" cy="0" r="1" gradientUnits="userSpaceOnUse" gradientTransform="translate(21.639 20.0264) rotate(-57.9731) scale(6.71542 2.3932)">
<stop stop-color="#4998F7"/>
<stop offset="0.603159" stop-color="#4998F7" stop-opacity="0.575571"/>
<stop offset="1" stop-color="#4998F7" stop-opacity="0"/>
</radialGradient>
<radialGradient id="paint18_radial_2167_3368" cx="0" cy="0" r="1" gradientUnits="userSpaceOnUse" gradientTransform="translate(20.2617 14.9366) rotate(-0.657529) scale(4.37806 5.97146)">
<stop stop-color="#4465B6" stop-opacity="0"/>
<stop offset="0.877577" stop-color="#4465B6" stop-opacity="0"/>
<stop offset="0.906221" stop-color="#4465B6" stop-opacity="0.10494"/>
<stop offset="1" stop-color="#4465B6" stop-opacity="0.83"/>
</radialGradient>
<radialGradient id="paint19_radial_2167_3368" cx="0" cy="0" r="1" gradientUnits="userSpaceOnUse" gradientTransform="translate(20.2617 14.9366) scale(3.55305 5.45617)">
<stop stop-color="#4465B6" stop-opacity="0"/>
<stop offset="0.680331" stop-color="#4465B6" stop-opacity="0.83"/>
<stop offset="0.788502" stop-color="#4465B6" stop-opacity="0.301517"/>
<stop offset="0.855634" stop-color="#4465B6" stop-opacity="0.10494"/>
<stop offset="0.910683" stop-color="#4465B6" stop-opacity="0"/>
</radialGradient>
<radialGradient id="paint20_radial_2167_3368" cx="0" cy="0" r="1" gradientUnits="userSpaceOnUse" gradientTransform="translate(21.0171 10.2449) rotate(18.5637) scale(1.49843 2.7068)">
<stop stop-color="#4998F7"/>
<stop offset="0.447264" stop-color="#4998F7" stop-opacity="0.612349"/>
<stop offset="0.746541" stop-color="#4998F7" stop-opacity="0.146938"/>
<stop offset="0.889533" stop-color="#4998F7" stop-opacity="0.0537401"/>
<stop offset="1" stop-color="#4998F7" stop-opacity="0"/>
</radialGradient>
<radialGradient id="paint21_radial_2167_3368" cx="0" cy="0" r="1" gradientUnits="userSpaceOnUse" gradientTransform="translate(20.2561 10.7091) rotate(-7.23674) scale(2.13009 4.68862)">
<stop stop-color="#4465B6"/>
<stop offset="0.681353" stop-color="#4465B6" stop-opacity="0.125617"/>
<stop offset="0.869035" stop-color="#4465B6" stop-opacity="0.0792375"/>
<stop offset="1" stop-color="#4465B6" stop-opacity="0"/>
</radialGradient>
<radialGradient id="paint22_radial_2167_3368" cx="0" cy="0" r="1" gradientUnits="userSpaceOnUse" gradientTransform="translate(20.7912 20.1465) rotate(-54.2245) scale(1.86722 3.35314)">
<stop stop-color="#4465B6"/>
<stop offset="0.739208" stop-color="#4465B6" stop-opacity="0.125617"/>
<stop offset="1" stop-color="#4465B6" stop-opacity="0"/>
</radialGradient>
<linearGradient id="paint23_linear_2167_3368" x1="26.6331" y1="10.8651" x2="26.6331" y2="20.1254" gradientUnits="userSpaceOnUse">
<stop stop-color="#41AEFF"/>
<stop offset="1" stop-color="#4998F7"/>
</linearGradient>
<radialGradient id="paint24_radial_2167_3368" cx="0" cy="0" r="1" gradientUnits="userSpaceOnUse" gradientTransform="translate(16.9778 15.0252) scale(11.6014 11.2331)">
<stop offset="0.838304" stop-color="#5BC7FF" stop-opacity="0"/>
<stop offset="0.885919" stop-color="#5BC7FF" stop-opacity="0.209488"/>
<stop offset="0.893937" stop-color="#5BC7FF" stop-opacity="0.410063"/>
<stop offset="0.907195" stop-color="#5BC7FF" stop-opacity="0.77"/>
<stop offset="0.922632" stop-color="#5BC7FF"/>
<stop offset="0.933711" stop-color="#5BC7FF" stop-opacity="0.956213"/>
<stop offset="0.941602" stop-color="#5BC7FF" stop-opacity="0.906812"/>
<stop offset="1" stop-color="#5BC7FF" stop-opacity="0"/>
</radialGradient>
<radialGradient id="paint25_radial_2167_3368" cx="0" cy="0" r="1" gradientUnits="userSpaceOnUse" gradientTransform="translate(23.058 23.9212) rotate(-57.5553) scale(12.2017 4.37878)">
<stop stop-color="#4998F7"/>
<stop offset="0.603159" stop-color="#4998F7" stop-opacity="0.575571"/>
<stop offset="1" stop-color="#4998F7" stop-opacity="0"/>
</radialGradient>
<radialGradient id="paint26_radial_2167_3368" cx="0" cy="0" r="1" gradientUnits="userSpaceOnUse" gradientTransform="translate(20.5266 14.7157) rotate(-0.646988) scale(8.04734 9.8788)">
<stop stop-color="#4465B6" stop-opacity="0"/>
<stop offset="0.877577" stop-color="#4465B6" stop-opacity="0"/>
<stop offset="0.906221" stop-color="#4465B6" stop-opacity="0.10494"/>
<stop offset="1" stop-color="#4465B6" stop-opacity="0.83"/>
</radialGradient>
<radialGradient id="paint27_radial_2167_3368" cx="0" cy="0" r="1" gradientUnits="userSpaceOnUse" gradientTransform="translate(20.5266 14.7157) scale(6.63762 8.6341)">
<stop stop-color="#4465B6" stop-opacity="0"/>
<stop offset="0.876663" stop-color="#4465B6" stop-opacity="0.83"/>
<stop offset="0.971793" stop-color="#4465B6" stop-opacity="0.10494"/>
<stop offset="1" stop-color="#4465B6" stop-opacity="0"/>
</radialGradient>
<radialGradient id="paint28_radial_2167_3368" cx="0" cy="0" r="1" gradientUnits="userSpaceOnUse" gradientTransform="translate(21.915 6.23009) rotate(13.329) scale(1.60637 1.43479)">
<stop stop-color="#4998F7"/>
<stop offset="0.533104" stop-color="#4998F7" stop-opacity="0.612349"/>
<stop offset="0.812948" stop-color="#4998F7" stop-opacity="0.146938"/>
<stop offset="1" stop-color="#4998F7" stop-opacity="0"/>
</radialGradient>
<radialGradient id="paint29_radial_2167_3368" cx="0" cy="0" r="1" gradientUnits="userSpaceOnUse" gradientTransform="translate(21.6534 6.24343) rotate(6.57898) scale(1.39753 3.02815)">
<stop stop-color="#4465B6"/>
<stop offset="0.739208" stop-color="#4465B6" stop-opacity="0.125617"/>
<stop offset="1" stop-color="#4465B6" stop-opacity="0"/>
</radialGradient>
<radialGradient id="paint30_radial_2167_3368" cx="0" cy="0" r="1" gradientUnits="userSpaceOnUse" gradientTransform="translate(21.4998 24.1384) rotate(-51.9112) scale(2.92593 5.27536)">
<stop stop-color="#4465B6"/>
<stop offset="0.739208" stop-color="#4465B6" stop-opacity="0.125617"/>
<stop offset="1" stop-color="#4465B6" stop-opacity="0"/>
</radialGradient>
</defs>
</svg>
