<svg width="26" height="29" viewBox="0 0 26 29" fill="none" xmlns="http://www.w3.org/2000/svg">
<path d="M17.0625 5.50094C17.0625 3.96031 18.1838 2.71875 19.5569 2.71875C20.93 2.71875 22.0431 3.96031 22.0513 5.50094V11.1424C23.3425 11.5261 24.2937 12.8393 24.2937 14.4004C24.2937 15.9614 23.3425 17.2746 22.0513 17.6583V23.3088C22.0513 24.8494 20.93 26.0909 19.5569 26.0909C18.9078 26.0909 18.318 25.8148 17.875 25.3631C17.3753 24.8536 17.0625 24.1206 17.0625 23.3088V23.0984L12.2441 20.4541C11.7466 20.1816 11.2181 19.9841 10.6752 19.8667C10.37 19.8048 10.0607 19.7666 9.75001 19.7529C9.66344 19.7491 9.57675 19.7472 9.49 19.7472L9.48693 19.7381H8.12501V25.1922C8.12501 25.7994 7.68626 26.2888 7.14189 26.2888H5.05048C4.50611 26.2888 4.06736 25.7994 4.06736 25.1922V19.7381H3.02788C2.25128 19.7381 1.625 19.0584 1.625 18.2247V10.585C1.625 9.74219 2.25128 9.0625 3.02788 9.0625H9.48998C9.51492 9.0625 9.53987 9.06231 9.56479 9.06199C10.4922 9.04946 11.4119 8.80393 12.2453 8.35605L17.0625 5.71245V5.50094ZM5.69236 19.7381V24.4763H6.50001V19.7381H5.69236ZM15.8844 8.43081L13.1347 9.93979L13.1289 9.94292C12.3234 10.3761 11.455 10.6666 10.5625 10.7968V17.7923L10.6418 18.025C11.5086 18.1615 12.3531 18.4508 13.1394 18.8815L13.1405 18.8821L15.8844 20.3879V8.43081Z" fill="#BFBFBF"/>
</svg>
