<svg width="16" height="14" viewBox="0 0 16 14" fill="none" xmlns="http://www.w3.org/2000/svg">
<path opacity="0.4" d="M8.45396 2.61876C8.45357 2.61805 8.45318 2.61734 8.4528 2.61663L8.45396 2.61876ZM13.4553 7.16811L7.94649 12.5716L2.43273 7.16322L2.43273 7.16321L2.43084 7.16137C1.95363 6.69747 1.62979 6.11252 1.51815 5.48159C1.44823 5.07353 1.42763 4.59039 1.53053 4.07314L1.53055 4.073C1.85505 2.43964 3.35772 1.25096 5.00702 1.42255L5.01019 1.42286C5.81402 1.5021 6.72075 1.90593 7.41757 3.18086C7.53199 3.39382 7.74783 3.49801 7.94836 3.49801C8.054 3.49801 8.19907 3.46889 8.32947 3.36118C8.39926 3.30353 8.45205 3.23364 8.48802 3.15791C9.18213 1.90298 10.0823 1.50585 10.8852 1.42262C12.5299 1.25545 14.0329 2.44442 14.3574 4.07789L14.3575 4.07803C14.4604 4.59558 14.4398 5.07453 14.3694 5.48885C14.2631 6.10999 13.9368 6.6958 13.4553 7.16811Z" stroke="#143967" stroke-width="1.179" stroke-miterlimit="10"/>
</svg>
