<svg width="15" height="12" viewBox="0 0 15 12" fill="none" xmlns="http://www.w3.org/2000/svg">
<path d="M7.55335 11.0773L12.7347 6.03237C13.1851 5.59382 13.4887 5.05139 13.5874 4.47839L7.55335 11.0773ZM7.55335 11.0773L2.36729 6.02778L2.36729 6.02778L2.36539 6.02594C1.91948 5.59565 1.6181 5.05431 1.51428 4.47203C1.44893 4.09344 1.42979 3.64571 1.52579 3.16666L1.52582 3.16652C1.82826 1.65535 3.23087 0.551029 4.77424 0.710418L4.77738 0.710726C5.52784 0.784163 6.37402 1.15751 7.02585 2.34121C7.14112 2.55419 7.35703 2.65632 7.55512 2.65632C7.65963 2.65632 7.80398 2.62779 7.93427 2.52095C8.00386 2.46389 8.05684 2.3945 8.09313 2.31906C8.74226 1.15475 9.58201 0.787645 10.3316 0.710493C11.8707 0.555199 13.2737 1.6598 13.5762 3.17111L13.5762 3.17125C13.6722 3.65033 13.6531 4.09395 13.5874 4.47837L7.55335 11.0773ZM8.06049 1.77591C8.06005 1.7751 8.0596 1.77429 8.05916 1.77348L8.06049 1.77591ZM7.54875 11.8859V11.8859Z" fill="white" stroke="white" stroke-width="1.179" stroke-miterlimit="10"/>
</svg>
